<svg width="114" height="82" viewBox="0 0 114 82" fill="none" xmlns="http://www.w3.org/2000/svg">
<path d="M38.4497 27.8413C38.2523 27.861 37.9799 27.8858 37.7134 27.9059C37.7508 27.8592 37.7861 27.8164 37.8177 27.7798C37.8433 27.75 37.8637 27.7274 37.8787 27.7115C37.895 27.7015 37.9077 27.6924 37.9163 27.6862C37.9463 27.6641 37.9697 27.6422 37.9824 27.63C38.01 27.6034 38.0373 27.5733 38.0603 27.5471C38.1084 27.4923 38.1689 27.4186 38.2357 27.3349C38.3707 27.1656 38.5485 26.9343 38.7405 26.6809C39.1009 26.2049 39.5189 25.6407 39.8146 25.2381C39.9859 25.1323 40.2109 24.9922 40.4102 24.8655C40.5268 24.7914 40.6368 24.7205 40.7228 24.6633C40.7655 24.6349 40.8051 24.608 40.8378 24.5847L40.8398 24.5833C40.8608 24.5683 40.9127 24.5314 40.9542 24.4899C41.0239 24.4203 41.0667 24.3374 41.081 24.3096L41.0819 24.3079C41.1046 24.264 41.1264 24.2155 41.1459 24.1691C41.1856 24.0752 41.2272 23.9636 41.2645 23.8571C41.302 23.7499 41.3374 23.6412 41.3641 23.5513C41.3773 23.5069 41.3896 23.4629 41.3991 23.4242C41.3993 23.4233 41.3995 23.4223 41.3998 23.4211C41.4044 23.4024 41.4192 23.343 41.423 23.2775C41.4233 23.2742 41.4239 23.2691 41.4246 23.2618C41.4268 23.2422 41.4301 23.2135 41.4346 23.1756C41.4436 23.1003 41.4567 22.9939 41.4731 22.863C41.5058 22.6015 41.5512 22.2455 41.6017 21.8524C41.7011 21.0782 41.8201 20.1616 41.9009 19.5423C41.9548 19.3262 42.0321 19.0128 42.0971 18.7411C42.131 18.5996 42.162 18.4673 42.1847 18.3654C42.196 18.3148 42.2059 18.2688 42.2132 18.2316C42.2158 18.2183 42.2185 18.2042 42.2209 18.1904C42.2232 18.1849 42.2259 18.1786 42.2291 18.1713C42.2502 18.1225 42.2825 18.0523 42.3238 17.9653C42.406 17.7925 42.5174 17.5671 42.6319 17.3431C42.7467 17.1185 42.8619 16.9005 42.9518 16.7411C42.9905 16.6724 43.0214 16.6203 43.0437 16.585C43.0627 16.5684 43.078 16.5531 43.0876 16.5433C43.1146 16.5156 43.1431 16.483 43.1693 16.4521C43.2236 16.388 43.294 16.3 43.3743 16.1975C43.5359 15.9908 43.751 15.7072 43.9849 15.395C44.3928 14.8505 44.8632 14.2119 45.2186 13.7263H45.9622L48.2475 14.8447C49.0313 15.557 49.9373 16.5243 50.6595 17.3287C51.027 17.7379 51.3439 18.1017 51.5689 18.363C51.6814 18.4936 51.7708 18.5986 51.8319 18.6707L51.9018 18.7533L51.9196 18.7745L51.924 18.7798L51.925 18.781L51.9253 18.7813L51.9253 18.7814L52.0938 18.9827L52.3552 18.9583L54.3089 18.7759L54.3735 18.7699L54.4344 18.7476L54.7831 18.6199L60.548 17.8434L60.677 17.826L60.7812 17.7479C61.6964 17.0615 63.0769 16.0322 64.2442 15.1749C64.8281 14.746 65.3569 14.3615 65.7468 14.0849C65.8954 13.9794 66.0219 13.891 66.1226 13.8224C66.2583 13.9343 66.4348 14.0889 66.6301 14.2647C66.9953 14.5934 67.4108 14.9825 67.7146 15.2716L69.5102 21.6397L69.5567 21.8048L69.6948 21.9066C70.1873 22.2694 70.8736 22.8574 71.4655 23.3745C71.6147 23.5049 71.7673 23.6391 71.9062 23.7612C72.0283 23.8685 72.1397 23.9665 72.2287 24.0441C72.3296 24.1323 72.4172 24.208 72.4846 24.2644C72.4947 24.2728 72.5046 24.2811 72.5143 24.2891C72.5296 24.3508 72.5479 24.4354 72.5688 24.543C72.6207 24.8109 72.6811 25.1818 72.7434 25.5984C72.8642 26.4056 72.9891 27.362 73.0699 28.0187C73.003 28.6331 72.9251 29.54 72.9018 30.3385C72.8898 30.7486 72.8917 31.1447 72.9199 31.4624C72.934 31.6198 72.9558 31.7753 72.992 31.9103C73.0204 32.0161 73.0852 32.2253 73.261 32.3659C73.2607 32.3657 73.2641 32.3685 73.272 32.3756C73.2797 32.3825 73.2896 32.3919 73.3021 32.404C73.3273 32.4285 73.359 32.4607 73.3973 32.5009C73.4739 32.5813 73.5702 32.6866 73.6825 32.8126C73.9068 33.0641 74.1867 33.3885 74.4854 33.7398C75.0516 34.4059 75.6788 35.1615 76.1087 35.6846L76.7685 38.1322C72.8455 40.4987 70.6029 41.9757 67.8891 44.7799C64.5911 43.1274 61.1288 43.1552 58.4892 43.595C57.121 43.8231 55.9627 44.1635 55.1453 44.4473C54.7468 44.5857 54.4284 44.7109 54.2052 44.8036C54.1944 44.792 54.1835 44.7806 54.1727 44.7693C54.0387 44.6299 53.8686 44.4734 53.6699 44.3046C53.2719 43.9665 52.7383 43.5613 52.1021 43.1194C50.8288 42.2349 49.1232 41.1885 47.225 40.22C45.3278 39.2521 43.2266 38.356 41.1636 37.7791C39.3295 37.2662 37.4944 36.9968 35.8477 37.1758V35.3261L36.5222 33.977C36.5916 33.8383 37.5253 31.8088 37.9806 30.8178C38.0624 30.6541 38.1833 30.4081 38.2849 30.1926C38.3363 30.0839 38.3846 29.9788 38.4208 29.8947C38.4386 29.8533 38.456 29.8112 38.4697 29.7738C38.4765 29.7554 38.4847 29.7318 38.4919 29.7064L38.4923 29.7049C38.4946 29.6971 38.5009 29.6752 38.5062 29.6447C38.5122 29.6267 38.5219 29.5998 38.5355 29.5635C38.566 29.4826 38.6094 29.3734 38.6594 29.2508C38.7589 29.0067 38.8789 28.7227 38.959 28.5357L39.2928 27.757L38.4497 27.8413Z" fill="#17161C" stroke="#17161C"/>
<path d="M57.4065 19.9199C47.1708 19.9199 42.8221 26.3522 42.8221 26.3522C43.4495 26.157 44.1113 26.1146 44.7558 26.2164C44.7558 26.2164 40.9486 30.0011 39.0579 35.1519C39.0579 35.1519 43.7675 34.5919 47.695 37.0528C46.7239 28.9912 54.2266 26.123 56.951 28.0239C56.5814 26.9631 55.2751 25.249 51.8289 25.9873C54.897 22.8475 60.9817 24.2053 64.1014 28.0069C64.3248 27.4129 64.4623 26.7934 64.5311 26.1655C64.5311 26.1655 66.3101 27.0819 66.8086 28.5585C66.9203 27.5826 67.7367 26.4116 67.7367 26.4116C67.7367 26.4116 68.3985 27.2601 68.8368 28.7367C69.1616 28.3003 69.5998 27.9587 70.1051 27.7481C70.6104 27.5374 71.164 27.4656 71.7072 27.5402C71.7072 27.5402 67.6508 19.9199 57.4065 19.9199Z" fill="#5F5F68"/>
<path d="M51.6949 25.7606C47.2519 26.9999 44.517 30.3104 43.4214 35.4062C44.888 35.7095 46.277 36.2642 47.5452 37.0528C46.579 28.8285 54.1105 25.8906 56.8367 27.8405C56.4571 26.7486 55.1458 25.0066 51.6949 25.7606Z" fill="white"/>
<path d="M62.009 20.2431C64.7306 21.3911 67.4005 22.8218 69.1575 26.6769L70.2427 27.5165C70.7121 27.3524 71.2134 27.2996 71.7069 27.3623C71.7069 27.3623 68.8733 22.0336 62.009 20.2517V20.2431Z" fill="#636363"/>
<path d="M52.1413 21.5972C49.4609 17.9294 45.7922 16.6873 45.7922 16.6873C45.7922 16.6873 42.9872 18.5546 43.6996 22.856C44.2072 20.4052 45.7032 19.2048 45.7032 19.2048C45.7032 19.2048 47.4841 20.4385 48.2321 22.956C48.9801 25.4568 52.1502 21.5972 52.1502 21.5972H52.1413Z" fill="#5F5F68"/>
<path d="M69.4211 30.1076C69.9737 28.844 70.9939 28.8096 70.9939 28.8096C70.9174 29.5833 70.6793 30.3569 70.3053 31.0446C70.0757 30.675 69.7781 30.3569 69.4211 30.1076ZM58.7766 31.44C64.694 32.5317 65.2806 39.4773 68.6899 39.4773C70.7644 39.4773 71.5125 38.2566 71.5125 38.2566C70.1777 38.4286 69.2085 37.2509 69.132 36.4515C69.0725 35.6435 69.2425 34.5861 69.2425 34.5861C69.2425 34.5861 71.0619 34.6721 71.8356 35.291C72.5583 34.8698 73.485 34.7753 73.485 34.7753C73.485 34.7753 72.5158 33.228 69.9652 32.4801C69.6785 33.0246 69.2919 33.5089 68.8259 33.9071C68.8259 33.9071 67.2191 31.3369 63.3507 30.4171C63.6227 30.9329 63.7928 31.4916 63.8438 32.0675C63.8438 32.0675 62.0584 30.6406 58.7851 31.44H58.7766Z" fill="white"/>
<path d="M58.313 34.642C57.6057 33.9043 57.7542 33.1828 57.7542 33.1828C57.7542 33.1828 58.1035 32.8504 59.1426 32.8504C61.343 32.8504 63.3252 36.4904 65.0803 38.0226C62.5568 37.2038 58.0074 39.644 57.1604 35.1041C57.9463 36.3769 59.0378 36.385 59.0378 36.385C58.8806 36.0607 58.8282 35.6959 58.8806 35.3311C59.553 36.0121 60.9239 36.0364 60.9239 36.0364C60.0103 35.3595 59.3154 34.4619 58.9155 33.4422C58.4003 33.9205 58.313 34.642 58.313 34.642Z" fill="white"/>
<path d="M57.9098 31.7192C54.495 32.7881 56.4834 39.7445 61.0912 39.2187C65.6904 38.6842 67.6614 40.0462 68.4741 42.1495C67.1998 41.3339 65.7176 40.9001 64.2034 40.8996C64.5753 41.0628 64.9027 41.3122 65.1583 41.6271C65.4139 41.9419 65.5904 42.3132 65.6731 42.7098C64.8426 41.9254 63.7393 41.4928 62.5954 41.503C60.1489 41.503 57.6159 42.3995 55.5065 41.5116C53.2501 38.4601 54.1665 35.4603 54.1665 35.4603C53.1896 35.9861 52.9821 37.0895 52.9821 37.0895C52.9821 37.0895 52.3165 31.6761 57.9098 31.7192Z" fill="white"/>
<path d="M68.4747 42.1602C63.5594 36.4945 55.5808 44.6125 53.957 35.5981C53.957 35.5981 53.0178 38.5409 55.3087 41.5344C57.4504 42.4054 60.0221 41.5175 62.5061 41.5175C63.6735 41.5091 64.7882 41.9403 65.6309 42.7098C65.547 42.3207 65.3678 41.9566 65.1082 41.6477C64.8487 41.3388 64.5163 41.0941 64.1387 40.934C65.6748 40.934 67.1757 41.3568 68.4747 42.1517V42.1602Z" fill="#5F5F68"/>
<path d="M58.1301 26.0708C58.57 27.1622 59.1528 28.1844 59.8617 29.1079C59.8617 29.1079 60.9822 29.2677 62.0093 28.7793C62.0093 28.7793 60.9058 26.799 58.1301 26.0619V26.0708Z" fill="white"/>
<path d="M60.7161 19.9244C63.5059 21.074 65.2716 22.457 66.331 25.7243L67.9908 26.096C68.6529 27.3061 71.0808 27.2629 71.6458 27.3234C71.6458 27.3234 68.4499 21.342 60.7161 19.9244ZM63.8767 17.9796C64.8743 16.2249 66.1986 15.8792 66.1986 15.8792C66.1986 15.8792 67.9202 17.9364 68.0349 21.3333C67.0168 20.5831 65.8848 19.994 64.6801 19.5873C65.34 19.5263 66.0057 19.6059 66.6312 19.8207C66.5566 18.7918 66.1896 17.8038 65.5718 16.9683C65.5718 16.9683 64.9273 17.1152 63.8767 17.9882V17.9796ZM71.8754 37.376C72.4728 36.8409 72.9637 36.202 73.3233 35.4917C72.9251 35.5635 72.5389 35.6886 72.1755 35.8634C71.9676 36.3412 71.8653 36.8567 71.8754 37.376Z" fill="#ABABAB"/>
<path d="M66.8278 12L66.3613 12.2315C65.202 12.7713 64.1212 13.4636 63.148 14.2896C62.4186 14.8914 61.7397 15.551 61.118 16.262L60.8157 16.6393C60.8157 16.6393 56.2893 16.6307 54.2507 18.3029C57.5073 17.5569 61.4463 18.3029 61.4463 18.3029L61.7399 17.8827L61.8522 17.7284L61.9905 17.5654L62.2582 17.2396L62.837 16.5964C63.639 15.7748 64.5281 15.0416 65.4889 14.4097C65.8258 14.1953 66.1626 13.9981 66.5082 13.8094C67.4465 14.8345 68.1794 16.0278 68.6677 17.3253C69.1671 18.6031 69.4558 19.9525 69.5229 21.3215V21.8703L69.5056 22.2991L69.8597 22.5477L69.9288 22.5906L69.9979 22.6421L70.1534 22.7536C70.4664 22.985 70.7583 23.2433 71.0259 23.5253C71.7684 24.2473 72.3999 25.0736 72.9003 25.9779C73.1077 26.3724 73.2804 26.784 73.4186 27.2042C73.17 28.3317 72.8172 29.434 72.3648 30.4971L72.2611 30.7287L72.1575 30.9431L71.8465 31.5605L72.4252 31.9121C73.0472 32.3065 73.6259 32.7525 74.1529 33.2584C74.2911 33.3785 74.412 33.5157 74.5416 33.6443C74.9147 34.0394 75.2475 34.4703 75.535 34.9306C76.2172 35.9938 76.6511 37.1952 76.8048 38.4465V38.4551C75.7022 38.8964 74.6579 39.4695 73.695 40.1616C72.5768 40.9387 71.5586 41.8488 70.6631 42.8714C72.2245 41.6478 73.9946 40.7125 75.8891 40.1102C76.5111 39.9301 77.133 39.7843 77.7722 39.6814L78.3337 39.5956V38.7724L78.3251 38.6095C78.3076 38.2869 78.2672 37.9659 78.2041 37.649C77.8956 35.9764 77.1578 34.411 76.0619 33.1041L75.6386 32.6153C75.0718 32.0122 74.4437 31.4691 73.7642 30.9945C74.1345 30.1533 74.4378 29.2845 74.6711 28.3962L74.9303 27.2985L74.9735 27.1099L74.913 26.9212C74.5541 25.7769 73.9925 24.7053 73.2545 23.7569C72.6242 22.9323 71.8897 22.1916 71.0691 21.553L71.0259 21.5187V21.2529C70.9999 20.5932 70.922 19.9366 70.7927 19.2891C70.5499 17.9944 70.1284 16.7391 69.5401 15.5588C68.8544 14.2254 67.9394 13.021 66.8364 12L66.8278 12Z" fill="white"/>
<path d="M71.6465 27.1265L71.56 26.9609L71.6465 27.1353V27.1265ZM71.6638 27.1788L71.6465 27.1265L71.6724 27.1788H71.6638ZM68.136 26.7866C68.4213 27.327 68.6548 27.9023 68.8277 28.4863C69.1538 28.0395 69.5933 27.6895 70.0999 27.4732C70.6066 27.2569 71.1618 27.1823 71.707 27.2573C71.1957 26.8897 70.6025 26.6546 69.9798 26.5725C69.3571 26.4904 68.7239 26.5639 68.136 26.7866ZM64.4959 25.8452C60.8298 21.2866 52.7281 20.1883 47.4624 25.9673C48.1097 25.6246 48.8205 25.4212 49.5499 25.3702C50.2792 25.3192 51.0111 25.4216 51.6992 25.6709L51.7251 25.6535C54.8119 22.4372 60.9335 23.8318 64.0635 27.7367C64.2797 27.1265 64.4267 26.4903 64.4959 25.8452Z" fill="white"/>
<path d="M52.2003 43.6077C50.1926 41.8953 47.9319 40.4974 45.4968 39.4627C43.8642 38.7697 42.1703 38.2279 40.4367 37.8441C38.9917 37.5299 37.5264 37.3153 36.0514 37.2018C36.7622 34.3959 37.9528 31.7311 39.5718 29.3229L39.7448 29.066L39.9264 28.8262L40.9644 27.4988L39.2777 27.6272L38.5252 27.6786L38.5338 27.6615C39.4544 26.4968 40.5146 25.4471 41.6909 24.5356L41.9937 24.3044V23.5935V23.2339C42.0195 22.5107 42.0917 21.7898 42.2099 21.0757C42.357 20.1337 42.5819 19.1916 42.8846 18.2924C43.1806 17.3983 43.5873 16.544 44.0955 15.7489C44.5213 15.0912 45.043 14.4996 45.6438 13.9933C46.7737 14.4502 47.8643 14.9972 48.9047 15.629C49.8999 16.2559 50.8299 16.9788 51.6813 17.7871L51.8543 17.9584L51.9321 18.0441L51.9927 18.1297L52.3127 18.4808C49.6659 13.9504 45.3843 12.3233 45.3843 12.3233L45.0557 12.5631C44.1776 13.2195 43.4249 14.0258 42.8327 14.9439C42.2567 15.8375 41.7948 16.7982 41.4574 17.8043C40.9545 19.2863 40.6464 20.8262 40.5405 22.386C40.5089 22.7764 40.4887 23.1677 40.48 23.5593V23.5935L40.134 23.8762C39.5269 24.398 38.9466 24.9496 38.3954 25.529C38.0148 25.923 37.6602 26.334 37.3315 26.7708C36.9855 27.2247 36.6914 27.7043 36.4406 28.2096L35.887 29.3657L37.1758 29.2715L37.8418 29.2201C36.1818 31.829 35.0098 34.7126 34.382 37.7328L34.209 38.6149H35.1172C36.8273 38.5846 38.537 38.6934 40.2291 38.9403C41.9331 39.1801 43.6025 39.5912 45.2286 40.1393C47.6872 40.9843 50.0004 42.1973 52.0878 43.7362C52.7798 44.2586 53.4372 44.8324 54.034 45.4575C53.4804 44.7896 52.8663 44.1729 52.2003 43.5991V43.6077ZM66.922 23.9961C66.9785 24.6137 66.8988 25.2361 66.6884 25.8202C65.8494 24.45 63.6265 22.9855 63.6265 22.9855C63.6265 22.9855 63.7735 25.0751 63.2286 26.5738L64.3271 27.6101C64.5001 27.0962 64.6039 26.5653 64.6731 26.0257C65.668 26.5778 66.4658 27.4215 66.9566 28.4408C67.4373 27.799 67.7574 27.0535 67.8907 26.2655C68.2627 26.7965 68.5654 27.3789 68.7817 27.9783L69.7677 27.4902C69.1944 26.0668 68.1993 24.8487 66.9133 23.9961H66.922Z" fill="white"/>
<path d="M97.439 50.7123L97.3364 51.3441L98.191 52.8808C99.302 52.0868 100.259 51.3355 101.045 50.7123H97.439ZM102.122 51.5831L103.284 48.817C102.237 50.102 101.259 51.4414 100.353 52.8296C99.9685 53.3845 99.5583 53.9821 99.1567 54.6054L101.233 58.3448C102.481 57.4654 103.575 56.6373 104.464 55.9287L102.122 51.5746V51.5831ZM103.84 64.8161L102.934 66.1479H104.925L105.164 64.6539L106.771 60.8121C105.724 62.0942 104.746 63.4308 103.84 64.8161ZM109.753 50.7123L106.31 54.7847C105.344 56.0653 103.677 58.3704 102.139 60.8121L101.43 65.3027C102.985 64.1982 104.495 63.0334 105.959 61.8109L106.216 60.1461L113.855 51.3526L113.958 50.7123H109.762H109.753ZM92.2346 50.7123H82.7744L80.3474 66.1479H84.3127L85.1672 60.7352H87.4746L90.2776 65.0295C91.5595 64.1331 92.6704 63.2794 93.5848 62.5537L92.2602 60.6157C93.5064 60.4667 94.6777 59.9427 95.6187 59.1131C96.4726 58.3026 97.0218 57.2236 97.1741 56.0567L97.2168 55.8177C97.4646 54.2383 97.1399 52.9918 96.2511 52.0783C95.3624 51.1648 94.0207 50.7123 92.2346 50.7123ZM93.1746 55.7921L93.1405 56.0311C93.1156 56.2502 93.0459 56.4618 92.9357 56.6527C92.8254 56.8437 92.6769 57.0099 92.4995 57.141C92.1406 57.3886 91.6706 57.5081 91.0638 57.5081H85.68L86.1756 54.3322H91.5595C92.7986 54.3322 93.3285 54.8188 93.1832 55.7921H93.1746ZM93.2857 64.3722C92.8926 64.9356 92.4824 65.5333 92.0893 66.1479H95.5076L95.6016 65.5162L94.6445 64.116L96.2169 60.3681C95.1695 61.6529 94.1911 62.9923 93.2857 64.3807V64.3722Z" fill="#17161C"/>
<path d="M15.5191 59.6253C15.7755 60.1887 15.8353 60.8461 15.7242 61.606L15.6815 61.8365C15.5939 62.471 15.3718 63.0795 15.0298 63.6213C14.6879 64.1631 14.2342 64.6257 13.6989 64.9782C12.4156 65.7869 10.9163 66.1859 9.40037 66.1222H0L2.4441 50.6781H11.3744C13.1605 50.6781 14.4766 51.0366 15.3397 51.7623C16.1943 52.488 16.5275 53.5125 16.3139 54.8358L16.2797 55.0748C16.1904 55.7193 15.9605 56.3364 15.606 56.8822C15.2516 57.4281 14.7814 57.8895 14.2287 58.2337C14.8013 58.5496 15.2542 59.0362 15.5277 59.6253H15.5191ZM5.83677 54.2552L5.45221 56.7055H10.4088C10.9642 56.7055 11.3915 56.6201 11.6821 56.4323C11.8253 56.3418 11.9464 56.2205 12.0366 56.0772C12.1268 55.9339 12.1838 55.7723 12.2034 55.6042L12.2376 55.3651C12.3572 54.6309 11.8786 54.2552 10.8019 54.2552H5.83677ZM11.7163 61.1279C11.8359 60.3595 11.3488 59.9753 10.2635 59.9753H4.93946L4.52927 62.5365H9.85329C10.9472 62.5365 11.5624 62.1523 11.6821 61.3669L11.7163 61.1279ZM18.9631 50.6781H32.3458L31.7818 54.2809H22.3729L22.0054 56.6116H30.9699L30.4059 60.1631H21.4499L21.0825 62.5195H30.4828L29.9188 66.1222H16.5361L18.9631 50.6781ZM38.7893 54.4004H33.3371L33.9182 50.6781H48.805L48.2239 54.4004H42.7631L40.9258 66.1222H36.9434L38.7808 54.4004H38.7893Z" fill="#17161C"/>
<path d="M50.4797 50.6781H63.8795L63.2984 54.4004H53.8639L53.4708 56.9189H62.4524L61.8713 60.6327H52.8811L52.0265 66.1223H48.0442L50.4797 50.6781ZM67.0415 65.499C66.0178 64.9011 65.235 63.9651 64.8281 62.8524C64.3848 61.5745 64.2846 60.2027 64.5376 58.874L65.8194 50.6781H69.7932L68.4943 58.9423C68.3148 60.1204 68.4686 61.0169 68.9728 61.623C69.477 62.2292 70.3145 62.5365 71.4853 62.5365C72.6646 62.5365 73.6046 62.2377 74.3054 61.623C75.0491 60.9141 75.5156 59.9637 75.6215 58.9423L76.9119 50.6781H80.8942L79.6123 58.874C79.4053 60.3056 78.8701 61.67 78.0485 62.861C77.267 63.9834 76.2147 64.8907 74.9891 65.499C73.7072 66.1308 72.2971 66.4467 70.87 66.4296C69.5321 66.4698 68.2085 66.1452 67.0415 65.4905V65.499Z" fill="#17161C"/>
</svg>
