<svg width="128" height="82" viewBox="0 0 128 82" fill="none" xmlns="http://www.w3.org/2000/svg">
<g clip-path="url(#clip0_1458_145586)">
<path d="M1.0824 56.7901C1.14522 56.796 1.22897 56.8018 1.33217 56.8062H1.75395C2.48234 56.8062 3.02377 56.6264 3.37824 56.2682C3.73869 55.9041 3.91967 55.3968 3.91967 54.7477C3.91967 54.0985 3.74467 53.5795 3.39469 53.2272C3.0447 52.8748 2.50328 52.6979 1.7704 52.6979C1.44884 52.6979 1.22 52.7067 1.0824 52.7228V56.7901V56.7901ZM5.05487 54.7477C5.05487 55.2521 4.9741 55.6921 4.81407 56.0664C4.65403 56.4363 4.4237 56.7477 4.12607 56.9992C3.83441 57.2463 3.47845 57.4305 3.05966 57.5533C2.64686 57.6703 2.18919 57.7302 1.68365 57.7302C1.44285 57.7302 1.17064 57.7185 0.867025 57.6966C0.563406 57.6805 0.273248 57.641 -0.00195312 57.5796V51.9231C0.273248 51.8617 0.564902 51.8222 0.874503 51.8061C1.1841 51.79 1.45931 51.7812 1.70011 51.7812C2.19816 51.7812 2.65434 51.8397 3.06714 51.9582C3.47994 52.0707 3.83292 52.2491 4.12457 52.4962C4.42221 52.7374 4.65254 53.0459 4.81257 53.4202C4.97261 53.7901 5.05337 54.2331 5.05337 54.7477H5.05487Z" fill="#17161C"/>
<path d="M9.51333 51.7812C10.3733 51.7812 11.0299 51.9348 11.4816 52.2432C11.9408 52.5517 12.1696 53.0225 12.1696 53.6556C12.1696 54.445 11.7718 54.9801 10.9746 55.2609C11.0838 55.3895 11.2064 55.5459 11.344 55.7316C11.4816 55.9158 11.6222 56.1176 11.7658 56.3369C11.9094 56.5504 12.047 56.7711 12.1786 57.0007C12.3102 57.2243 12.4284 57.4466 12.5316 57.6644H11.3201C11.2109 57.4626 11.0942 57.2609 10.9671 57.0591C10.8415 56.8515 10.7128 56.6527 10.5797 56.4626C10.4541 56.2667 10.327 56.084 10.2013 55.9158C10.0757 55.7419 9.95754 55.5883 9.84835 55.4538C9.76759 55.4597 9.69879 55.4626 9.64195 55.4626H8.95395V57.6644H7.87109V51.9245C8.13433 51.869 8.41551 51.8324 8.71315 51.8149C9.01079 51.7929 9.27701 51.7812 9.51333 51.7812V51.7812ZM9.5911 52.6979C9.36226 52.6979 9.14988 52.7067 8.95545 52.7228V54.6059H9.42807C9.69131 54.6059 9.92463 54.5912 10.1251 54.5635C10.3255 54.5357 10.4915 54.4845 10.6231 54.4129C10.7607 54.3398 10.8639 54.2418 10.9327 54.119C11.0015 53.9962 11.0359 53.8383 11.0359 53.6482C11.0359 53.4684 11.0015 53.3178 10.9327 53.195C10.8639 53.0722 10.7637 52.9743 10.6321 52.9012C10.5064 52.8281 10.3539 52.7783 10.1759 52.7506C9.99792 52.7169 9.80348 52.7009 9.5911 52.7009V52.6979Z" fill="#17161C"/>
<path d="M15.0039 57.667V51.8438H18.8298V52.7429H16.0868V54.1801H18.5292V55.0616H16.0868V56.7678H19.0362V57.667H15.0039Z" fill="#17161C"/>
<path d="M25.7569 57.667C25.6762 57.4374 25.5939 57.2108 25.5072 56.9857C25.4219 56.762 25.3381 56.5324 25.2574 56.2971H22.7477C22.6669 56.5324 22.5846 56.7649 22.4979 56.9944C22.4171 57.2181 22.3379 57.4433 22.2571 57.667H21.1309C21.3537 57.0456 21.5661 56.471 21.7665 55.9447C21.9669 55.4184 22.1614 54.9198 22.3513 54.4491C22.5458 53.9783 22.7387 53.5309 22.9271 53.104C23.1156 52.6786 23.3115 52.2575 23.5119 51.8438H24.535C24.7354 52.259 24.9298 52.6786 25.1198 53.104C25.3082 53.5295 25.4982 53.9783 25.6866 54.4491C25.8811 54.9198 26.0785 55.4184 26.2804 55.9447C26.4868 56.471 26.7022 57.0456 26.925 57.667H25.7554H25.7569ZM24.0025 52.9695C23.8709 53.2663 23.7183 53.6274 23.5463 54.0543C23.3803 54.4798 23.2053 54.9418 23.0214 55.4403H24.9822C24.7982 54.9418 24.6217 54.4768 24.4497 54.0455C24.2777 53.6143 24.1282 53.2561 24.0025 52.9695V52.9695Z" fill="#17161C"/>
<path d="M30.6102 51.8438C30.7358 52.0572 30.8764 52.3174 31.0319 52.6259C31.186 52.9344 31.3445 53.259 31.5046 53.6011C31.6646 53.9374 31.8231 54.2824 31.9772 54.6347C32.1372 54.9827 32.2838 55.3043 32.4154 55.6011C32.547 55.3043 32.6906 54.9827 32.8447 54.6347C32.9987 54.2824 33.1573 53.9374 33.3173 53.6011C33.4773 53.259 33.6359 52.9344 33.7899 52.6259C33.944 52.3174 34.0846 52.0572 34.2117 51.8438H35.1914C35.2422 52.2692 35.2916 52.7239 35.3379 53.2049C35.3843 53.6815 35.4232 54.1713 35.4576 54.6757C35.498 55.1742 35.5324 55.6786 35.5608 56.1889C35.5952 56.6933 35.6236 57.186 35.646 57.6684H34.5796C34.5572 56.99 34.5288 56.2927 34.4944 55.5763C34.466 54.8599 34.4196 54.164 34.3568 53.4914C34.294 53.6201 34.2192 53.7751 34.1339 53.9534C34.0487 54.1333 33.9559 54.3292 33.8587 54.5412C33.7615 54.7488 33.6613 54.9637 33.5581 55.1888C33.4609 55.4125 33.3637 55.6318 33.2664 55.8438C33.1752 56.0514 33.0885 56.2473 33.0092 56.4316C32.9284 56.6114 32.8596 56.7649 32.8028 56.8936H31.9951C31.9383 56.7649 31.8695 56.6085 31.7887 56.4228C31.708 56.2386 31.6197 56.0412 31.5225 55.8351C31.4313 55.6216 31.3341 55.4038 31.2309 55.1801C31.1336 54.9564 31.0364 54.74 30.9392 54.5324C30.842 54.3248 30.7507 54.1318 30.664 53.952C30.5787 53.7678 30.504 53.6128 30.4411 53.49C30.3783 54.1625 30.329 54.857 30.2946 55.5748C30.2662 56.2927 30.2407 56.9901 30.2168 57.667H29.1504C29.1728 57.1845 29.1997 56.686 29.2282 56.1713C29.2626 55.6552 29.297 55.1464 29.3314 54.6421C29.3717 54.1318 29.4151 53.6391 29.46 53.1625C29.5064 52.6859 29.5542 52.2458 29.6066 51.8438H30.6131H30.6102Z" fill="#17161C"/>
<path d="M43.9799 57.7302C43.6643 57.7302 43.3472 57.7185 43.0257 57.6966C42.7041 57.6805 42.4244 57.641 42.1836 57.5796V51.9231C42.3092 51.9011 42.4438 51.8807 42.5874 51.8646C42.731 51.8427 42.8776 51.8251 43.0257 51.8149C43.1752 51.8032 43.3203 51.7959 43.4639 51.79C43.6134 51.7842 43.754 51.7812 43.8857 51.7812C44.2461 51.7812 44.5826 51.809 44.8922 51.8646C45.2018 51.9143 45.4681 52.002 45.6924 52.1248C45.9212 52.2476 46.0992 52.4099 46.2249 52.6117C46.3505 52.8134 46.4133 53.062 46.4133 53.3602C46.4133 53.6351 46.3445 53.8705 46.2069 54.0664C46.0753 54.2623 45.8883 54.4187 45.6475 54.5372C46.008 54.6541 46.2757 54.8281 46.4477 55.0576C46.6197 55.2872 46.705 55.5781 46.705 55.9319C46.705 56.5313 46.4821 56.9831 46.0349 57.2843C45.5877 57.5811 44.9027 57.7302 43.9799 57.7302V57.7302ZM43.2485 55.0415V56.815C43.3682 56.8267 43.4983 56.834 43.6359 56.8398C43.7735 56.8457 43.8991 56.8486 44.0143 56.8486C44.2371 56.8486 44.4435 56.834 44.6335 56.8062C44.8279 56.7784 44.9939 56.7302 45.1315 56.6629C45.2751 56.5898 45.3873 56.4948 45.4666 56.3778C45.5518 56.2609 45.5952 56.1088 45.5952 55.9246C45.5952 55.5942 45.4725 55.3647 45.2258 55.236C44.979 55.1073 44.638 55.043 44.2027 55.043H43.2485V55.0415ZM43.2485 54.2097H44.0143C44.4271 54.2097 44.7501 54.1541 44.9865 54.0415C45.2213 53.9246 45.3394 53.717 45.3394 53.4202C45.3394 53.1395 45.2168 52.9406 44.97 52.8237C44.7292 52.7067 44.4136 52.6468 44.0247 52.6468C43.8587 52.6468 43.7092 52.6497 43.5775 52.6555C43.4519 52.6614 43.3427 52.6702 43.2515 52.6804V54.2097H43.2485Z" fill="#17161C"/>
<path d="M50.5516 51.8438H49.4688V57.667H50.5516V51.8438Z" fill="#17161C"/>
<path d="M56.3968 52.6437C55.7836 52.6437 55.314 52.8308 54.9864 53.2066C54.6648 53.5765 54.5048 54.0926 54.5048 54.7534C54.5048 55.0677 54.5422 55.3557 54.617 55.6189C54.6977 55.8762 54.8114 56.0985 54.961 56.2827C55.115 56.4669 55.305 56.6131 55.5278 56.7198C55.7567 56.8207 56.0229 56.8704 56.328 56.8704C56.5165 56.8704 56.681 56.8645 56.8186 56.8543C56.9562 56.8382 57.0654 56.8178 57.1446 56.7958V54.7037H58.2275V57.502C58.0779 57.5575 57.8267 57.6189 57.4707 57.6862C57.1147 57.7535 56.7049 57.7871 56.2413 57.7871C55.812 57.7871 55.4187 57.7198 55.0642 57.5853C54.7082 57.4508 54.4046 57.2549 54.1533 56.9976C53.9065 56.7403 53.7151 56.423 53.5775 56.0473C53.4399 55.6715 53.3711 55.2402 53.3711 54.7534C53.3711 54.2665 53.4459 53.8352 53.5939 53.4595C53.748 53.0838 53.9574 52.768 54.2221 52.5092C54.4854 52.246 54.795 52.0472 55.1509 51.9127C55.5069 51.7782 55.8838 51.7109 56.2861 51.7109C56.5613 51.7109 56.8051 51.7299 57.0175 51.7694C57.2359 51.803 57.4213 51.8425 57.5769 51.8864C57.7309 51.9317 57.8581 51.9785 57.9553 52.0297C58.0585 52.0794 58.1303 52.1159 58.1707 52.1393L57.8446 53.0048C57.6726 52.9039 57.4572 52.8206 57.2 52.7534C56.9472 52.6803 56.681 52.6437 56.3998 52.6437H56.3968Z" fill="#17161C"/>
<path d="M68.5714 52.5002C68.6627 52.8028 68.7599 53.1186 68.8631 53.4505C68.9663 53.7751 69.0725 54.1026 69.1816 54.4344C69.2968 54.759 69.4075 55.0821 69.5167 55.4008C69.6318 55.7152 69.7395 56.012 69.8427 56.2912C69.928 55.9886 70.0117 55.6611 70.0925 55.3073C70.1733 54.9491 70.2525 54.5792 70.3333 54.1976C70.4141 53.8116 70.4903 53.4183 70.5651 53.0207C70.6459 52.623 70.7192 52.2312 70.788 51.8438H71.9052C71.7048 52.8964 71.4805 53.911 71.2352 54.8862C70.9884 55.8555 70.7132 56.7824 70.4096 57.6684H69.3776C68.9304 56.5368 68.4981 55.3014 68.0793 53.9622C67.867 54.6406 67.6531 55.2839 67.4347 55.895C67.2164 56.5061 66.9995 57.0968 66.7811 57.6684H65.7491C65.4395 56.7839 65.1613 55.8555 64.9145 54.8862C64.6737 53.911 64.4539 52.8979 64.252 51.8438H65.4126C65.4814 52.2253 65.5532 52.6142 65.628 53.0119C65.7087 53.4096 65.788 53.8014 65.8688 54.1888C65.954 54.5704 66.0408 54.9403 66.126 55.2985C66.2113 55.6567 66.298 55.9871 66.3833 56.2897C66.4925 56.0046 66.6016 55.7049 66.7093 55.3906C66.8245 55.0719 66.9352 54.7488 67.0444 54.4242C67.1535 54.0938 67.2567 53.7663 67.3539 53.4403C67.4572 53.1157 67.5514 52.8014 67.6381 52.4987H68.5669L68.5714 52.5002Z" fill="#17161C"/>
<path d="M75.5379 51.8438H74.4551V57.667H75.5379V51.8438Z" fill="#17161C"/>
<path d="M82.6135 57.6684C82.4191 57.3497 82.2007 57.0076 81.9599 56.6436C81.7191 56.2737 81.4693 55.9038 81.2121 55.5339C80.9548 55.1581 80.6901 54.797 80.4209 54.4491C80.1576 54.0967 79.9049 53.7795 79.6641 53.4988V57.667H78.5977V51.8438H79.4831C79.7119 52.0791 79.9587 52.3598 80.2219 52.6844C80.4852 53.0031 80.7499 53.3365 81.0131 53.6844C81.2824 54.0324 81.5411 54.3818 81.7864 54.7356C82.0392 55.0836 82.262 55.4081 82.4565 55.7108V51.8452H83.5318V57.6684H82.612H82.6135Z" fill="#17161C"/>
<path d="M92.0346 57.7302C91.7205 57.7302 91.4019 57.7185 91.0803 57.6966C90.7603 57.6805 90.4791 57.641 90.2383 57.5796V51.9231C90.3654 51.9011 90.5 51.8807 90.6421 51.8646C90.7857 51.8427 90.9323 51.8251 91.0803 51.8149C91.2299 51.8032 91.3765 51.7959 91.5186 51.79C91.6681 51.7842 91.8087 51.7812 91.9403 51.7812C92.3008 51.7812 92.6373 51.809 92.9469 51.8646C93.2565 51.9143 93.5227 52.002 93.7471 52.1248C93.9759 52.2476 94.1539 52.4099 94.2795 52.6117C94.4052 52.8134 94.468 53.062 94.468 53.3602C94.468 53.6351 94.3992 53.8705 94.2616 54.0664C94.13 54.2623 93.943 54.4187 93.7022 54.5372C94.0627 54.6541 94.3304 54.8281 94.5024 55.0576C94.6744 55.2872 94.7597 55.5781 94.7597 55.9319C94.7597 56.5313 94.5368 56.9831 94.0896 57.2843C93.6424 57.5811 92.9589 57.7302 92.0346 57.7302V57.7302ZM91.3032 55.0415V56.815C91.4228 56.8267 91.553 56.834 91.6906 56.8398C91.8282 56.8457 91.9538 56.8486 92.069 56.8486C92.2918 56.8486 92.4982 56.834 92.6882 56.8062C92.8826 56.7784 93.0486 56.7302 93.1862 56.6629C93.3298 56.5898 93.442 56.4948 93.5213 56.3778C93.6065 56.2609 93.6499 56.1088 93.6499 55.9246C93.6499 55.5942 93.5272 55.3647 93.2804 55.236C93.0352 55.1073 92.6927 55.043 92.2574 55.043H91.3032V55.0415ZM91.3032 54.2097H92.069C92.4818 54.2097 92.8063 54.1541 93.0411 54.0415C93.2775 53.9246 93.3941 53.717 93.3941 53.4202C93.3941 53.1395 93.2715 52.9406 93.0247 52.8237C92.7839 52.7067 92.4698 52.6468 92.0794 52.6468C91.9134 52.6468 91.7653 52.6497 91.6322 52.6555C91.5066 52.6614 91.3974 52.6702 91.3062 52.6804V54.2097H91.3032Z" fill="#17161C"/>
<path d="M98.6043 51.8438H97.5215V57.667H98.6043V51.8438Z" fill="#17161C"/>
<path d="M104.451 52.6437C103.838 52.6437 103.368 52.8308 103.041 53.2066C102.719 53.5765 102.559 54.0926 102.559 54.7534C102.559 55.0677 102.596 55.3557 102.671 55.6189C102.75 55.8762 102.866 56.0985 103.015 56.2827C103.169 56.4669 103.359 56.6131 103.582 56.7198C103.811 56.8207 104.077 56.8704 104.382 56.8704C104.571 56.8704 104.735 56.8645 104.873 56.8543C105.01 56.8382 105.118 56.8178 105.199 56.7958V54.7037H106.282V57.502C106.132 57.5575 105.881 57.6189 105.525 57.6862C105.169 57.7535 104.759 57.7871 104.295 57.7871C103.866 57.7871 103.473 57.7198 103.117 57.5853C102.761 57.4508 102.457 57.2549 102.206 56.9976C101.959 56.7403 101.768 56.423 101.63 56.0473C101.493 55.6715 101.424 55.2402 101.424 54.7534C101.424 54.2665 101.497 53.8352 101.647 53.4595C101.801 53.0838 102.01 52.768 102.275 52.5092C102.538 52.246 102.848 52.0472 103.204 51.9127C103.558 51.7782 103.937 51.7109 104.339 51.7109C104.614 51.7109 104.858 51.7299 105.07 51.7694C105.287 51.803 105.474 51.8425 105.63 51.8864C105.784 51.9317 105.909 51.9785 106.008 52.0297C106.111 52.0794 106.183 52.1159 106.223 52.1393L105.897 53.0048C105.725 52.9039 105.51 52.8206 105.253 52.7534C105 52.6803 104.734 52.6437 104.453 52.6437H104.451Z" fill="#17161C"/>
<path d="M111.953 52.6437C111.34 52.6437 110.87 52.8308 110.543 53.2066C110.221 53.5765 110.061 54.0926 110.061 54.7534C110.061 55.0677 110.098 55.3557 110.173 55.6189C110.252 55.8762 110.368 56.0985 110.517 56.2827C110.671 56.4669 110.861 56.6131 111.084 56.7198C111.313 56.8207 111.579 56.8704 111.884 56.8704C112.073 56.8704 112.237 56.8645 112.375 56.8543C112.512 56.8382 112.62 56.8178 112.701 56.7958V54.7037H113.784V57.502C113.634 57.5575 113.383 57.6189 113.027 57.6862C112.671 57.7535 112.261 57.7871 111.797 57.7871C111.368 57.7871 110.975 57.7198 110.619 57.5853C110.263 57.4508 109.959 57.2549 109.708 56.9976C109.461 56.7403 109.27 56.423 109.132 56.0473C108.995 55.6715 108.926 55.2402 108.926 54.7534C108.926 54.2665 108.999 53.8352 109.149 53.4595C109.303 53.0838 109.512 52.768 109.777 52.5092C110.04 52.246 110.35 52.0472 110.706 51.9127C111.06 51.7782 111.438 51.7109 111.841 51.7109C112.116 51.7109 112.36 51.7299 112.572 51.7694C112.789 51.803 112.976 51.8425 113.132 51.8864C113.286 51.9317 113.411 51.9785 113.51 52.0297C113.613 52.0794 113.685 52.1159 113.725 52.1393L113.399 53.0048C113.227 52.9039 113.012 52.8206 112.755 52.7534C112.502 52.6803 112.236 52.6437 111.954 52.6437H111.953Z" fill="#17161C"/>
<path d="M116.668 57.667V51.8438H120.494V52.7429H117.751V54.1801H120.193V55.0616H117.751V56.7678H120.7V57.667H116.668Z" fill="#17161C"/>
<path d="M124.982 51.7812C125.842 51.7812 126.499 51.9348 126.95 52.2432C127.41 52.5517 127.638 53.0225 127.638 53.6556C127.638 54.445 127.241 54.9801 126.443 55.2609C126.553 55.3895 126.675 55.5459 126.813 55.7316C126.95 55.9158 127.091 56.1176 127.235 56.3369C127.378 56.5504 127.516 56.7711 127.647 57.0007C127.78 57.2243 127.897 57.4466 128 57.6644H126.789C126.681 57.4626 126.563 57.2609 126.436 57.0591C126.31 56.8515 126.182 56.6527 126.048 56.4626C125.923 56.2667 125.797 56.084 125.67 55.9158C125.544 55.7419 125.426 55.5883 125.317 55.4538C125.238 55.4597 125.169 55.4626 125.111 55.4626H124.423V57.6644H123.34V51.9245C123.603 51.869 123.884 51.8324 124.182 51.8149C124.48 51.7929 124.747 51.7812 124.982 51.7812V51.7812ZM125.06 52.6979C124.831 52.6979 124.619 52.7067 124.424 52.7228V54.6059H124.897C125.16 54.6059 125.393 54.5912 125.594 54.5635C125.796 54.5357 125.96 54.4845 126.092 54.4129C126.229 54.3398 126.333 54.2418 126.401 54.119C126.47 53.9962 126.505 53.8383 126.505 53.6482C126.505 53.4684 126.47 53.3178 126.401 53.195C126.333 53.0722 126.232 52.9743 126.101 52.9012C125.975 52.8281 125.823 52.7783 125.645 52.7506C125.468 52.7169 125.272 52.7009 125.06 52.7009V52.6979Z" fill="#17161C"/>
<path fill-rule="evenodd" clip-rule="evenodd" d="M43.4251 31.1738C43.4251 31.1738 44.5274 31.0949 44.9133 30.456C45.2991 29.8171 47.4319 24.9646 47.4319 24.9646C47.4319 24.9646 48.274 24.105 49.128 24.8754C49.8115 25.4924 51.6901 30.2981 51.6901 30.2981C51.6901 30.2981 52.0221 31.0685 52.9031 31.149C53.7855 31.2279 59.0203 31.7864 59.0203 31.7864C59.0203 31.7864 60.4876 32.3785 59.9013 33.3537C59.6171 33.8274 55.0523 37.8187 55.0523 37.8187C55.0523 37.8187 54.5004 38.5629 54.6664 39.1213C54.831 39.6798 55.9617 44.4109 55.9617 44.4109C55.9617 44.4109 56.0454 45.3671 55.6311 45.7925C55.2183 46.218 54.9686 46.2443 54.3359 46.0323C53.7032 45.8188 48.9082 42.8963 48.9082 42.8963C48.9082 42.8963 48.3563 42.6565 47.8612 42.9226C47.3661 43.1887 42.6817 45.8729 42.6817 45.8729C42.6817 45.8729 41.0021 46.8306 40.6431 45.2092C40.5878 43.9606 41.8008 40.2924 41.8008 40.2924C41.8008 40.2924 42.2973 38.6447 41.5525 37.9006C40.8077 37.1564 37.0057 33.7557 37.0057 33.7557C37.0057 33.7557 35.9587 32.6388 37.1717 31.9487C38.4116 31.5247 43.4251 31.1782 43.4251 31.1782V31.1738Z" fill="#17161C"/>
<path d="M10.2138 38.72C10.2138 37.2682 9.91762 36.1176 9.32833 35.2682C8.73755 34.4202 7.80575 33.9962 6.52846 33.9962C5.94814 33.9962 5.40223 34.081 4.88922 34.2506C4.37621 34.4202 3.9649 34.6103 3.6553 34.8164V43.3283C3.90657 43.3853 4.23113 43.4379 4.62748 43.4847C5.02233 43.533 5.50244 43.5549 6.06331 43.5549C7.35855 43.5549 8.3741 43.1265 9.10847 42.2683C9.84284 41.4116 10.2108 40.2273 10.2108 38.7185L10.2138 38.72ZM13.8108 38.7756C13.8108 39.9642 13.6313 41.0344 13.2739 41.9861C12.9164 42.9379 12.4034 43.7537 11.7363 44.4321C11.0693 45.1119 10.2616 45.6295 9.31338 45.9891C8.36513 46.3459 7.29274 46.5257 6.09322 46.5257C4.89371 46.5257 3.82581 46.4409 2.77137 46.2713C1.71693 46.1017 0.841966 45.9131 0.146484 45.7055V24.7767L3.6568 24.2109V31.8763C4.06212 31.6687 4.56017 31.4801 5.15096 31.3105C5.74174 31.1409 6.39385 31.0561 7.10878 31.0561C8.17219 31.0561 9.12492 31.2403 9.96698 31.6073C10.8075 31.9757 11.509 32.4977 12.0699 33.1775C12.6307 33.8559 13.06 34.6717 13.3606 35.622C13.6613 36.5752 13.8108 37.6264 13.8108 38.7756V38.7756Z" fill="#17161C"/>
<path d="M20.3362 46.1543H16.8259V31.363H20.3362V46.1543ZM20.7131 27.0369C20.7131 27.6773 20.5007 28.1861 20.0744 28.5633C19.6482 28.9405 19.1456 29.1291 18.5668 29.1291C17.988 29.1291 17.454 28.9405 17.0293 28.5633C16.6045 28.1861 16.3906 27.6773 16.3906 27.0369C16.3906 26.3965 16.6045 25.8585 17.0293 25.4799C17.4555 25.1027 17.967 24.9141 18.5668 24.9141C19.1666 24.9141 19.6497 25.1027 20.0744 25.4799C20.5007 25.8571 20.7131 26.3761 20.7131 27.0369V27.0369Z" fill="#17161C"/>
<path d="M23.9917 27.4642L27.502 26.8984V31.3664H32.8969V34.2231H27.502V40.2467C27.502 41.4338 27.695 42.2818 28.0824 42.792C28.4697 43.3023 29.1263 43.5567 30.0551 43.5567C30.6938 43.5567 31.2591 43.4909 31.7527 43.3578C32.2463 43.2263 32.6366 43.1034 32.9283 42.9909L33.5071 45.7058C33.1018 45.8754 32.5693 46.0494 31.9112 46.2292C31.2532 46.4076 30.4799 46.4968 29.59 46.4968C28.5071 46.4968 27.6037 46.355 26.8769 46.0728C26.1515 45.7906 25.5771 45.3813 25.1509 44.8432C24.7261 44.3052 24.4255 43.6546 24.252 42.8914C24.077 42.1283 23.9902 41.2555 23.9902 40.2759V27.4642H23.9917Z" fill="#17161C"/>
<path d="M69.222 43.5015C70.5367 43.5015 71.4939 43.2852 72.0936 42.8509C72.6919 42.4167 72.9925 41.8056 72.9925 41.0132C72.9925 40.5424 72.8923 40.136 72.6874 39.7968C72.484 39.4576 72.1953 39.1506 71.8184 38.8772C71.4415 38.6052 70.9809 38.3494 70.4394 38.114C69.898 37.8786 69.2803 37.6476 68.5833 37.421C67.8864 37.1768 67.2148 36.9078 66.5672 36.6154C65.9181 36.323 65.3482 35.9604 64.8562 35.5262C64.3626 35.0935 63.9662 34.5745 63.6656 33.9706C63.365 33.3683 63.2169 32.6417 63.2169 31.7937C63.2169 30.0217 63.8451 28.6299 65.1029 27.6226C66.3593 26.6138 68.0703 26.1094 70.236 26.1094C71.4924 26.1094 72.6096 26.2468 73.5863 26.5202C74.563 26.7936 75.3317 27.0904 75.8926 27.4106L74.7619 30.2951C74.1038 29.9369 73.3829 29.6635 72.6007 29.4749C71.8184 29.2878 71.0093 29.1928 70.1777 29.1928C69.1906 29.1928 68.4233 29.3916 67.8714 29.7878C67.321 30.1826 67.0443 30.7396 67.0443 31.456C67.0443 31.8902 67.1355 32.2615 67.3195 32.573C67.502 32.8844 67.7637 33.1621 68.1017 33.4063C68.4397 33.6519 68.8361 33.8785 69.2908 34.0861C69.7455 34.2937 70.2435 34.4911 70.7864 34.6797C71.7332 35.0204 72.5797 35.3639 73.3246 35.7134C74.0694 36.0628 74.6976 36.4765 75.2106 36.9575C75.7236 37.4385 76.114 38.0043 76.3847 38.6535C76.6554 39.3041 76.7915 40.0921 76.7915 41.0146C76.7915 42.7866 76.1484 44.1594 74.8621 45.1288C73.5758 46.101 71.6958 46.5849 69.219 46.5849C68.3874 46.5849 67.6276 46.5323 66.9426 46.43C66.2561 46.3262 65.6474 46.199 65.1149 46.0484C64.5824 45.8978 64.1233 45.7413 63.7359 45.582C63.3485 45.4212 63.0404 45.275 62.8086 45.1434L63.881 42.2296C64.403 42.5118 65.1089 42.7954 65.9988 43.0776C66.8873 43.3597 67.9611 43.5015 69.2175 43.5015H69.222Z" fill="#17161C"/>
<path d="M79.0273 27.4642L82.5362 26.8984V31.3664H87.9325V34.2231H82.5362V40.2467C82.5362 41.4338 82.7291 42.2818 83.118 42.792C83.5038 43.3023 84.1619 43.5567 85.0907 43.5567C85.7294 43.5567 86.2948 43.4909 86.7883 43.3578C87.2804 43.2263 87.6723 43.1034 87.9624 42.9909L88.5427 45.7058C88.1374 45.8754 87.605 46.0494 86.9484 46.2292C86.2903 46.4076 85.517 46.4968 84.6271 46.4968C83.5442 46.4968 82.6394 46.355 81.9155 46.0728C81.1886 45.7906 80.6127 45.3813 80.188 44.8432C79.7632 44.3052 79.4626 43.6546 79.2891 42.8914C79.1156 42.1283 79.0273 41.2555 79.0273 40.2759V27.4642V27.4642Z" fill="#17161C"/>
<path d="M96.0282 43.7546C97.111 43.7546 97.9321 43.6976 98.4945 43.585V39.7955C98.3016 39.7385 98.0204 39.6829 97.6539 39.6259C97.286 39.5689 96.8807 39.5411 96.435 39.5411C96.0491 39.5411 95.6572 39.5703 95.2609 39.6259C94.863 39.6829 94.5056 39.7853 94.1885 39.9373C93.8699 40.0879 93.6127 40.2999 93.4197 40.5733C93.2253 40.8467 93.1296 41.1917 93.1296 41.6069C93.1296 42.4169 93.3898 42.9783 93.9133 43.2883C94.4353 43.5997 95.1412 43.7546 96.0312 43.7546H96.0282ZM95.738 31C96.8971 31 97.8738 31.1404 98.668 31.424C99.4592 31.7076 100.093 32.1038 100.567 32.6126C101.042 33.1214 101.38 33.7398 101.583 34.465C101.786 35.1901 101.887 35.9869 101.887 36.8539V45.819C101.344 45.933 100.527 46.069 99.4353 46.2298C98.3419 46.3892 97.1095 46.4711 95.7365 46.4711C94.8272 46.4711 93.9971 46.3848 93.2417 46.2167C92.4864 46.0471 91.8433 45.7737 91.3123 45.3965C90.7799 45.0193 90.3656 44.5295 90.0635 43.9257C89.7643 43.3233 89.6133 42.5792 89.6133 41.6917C89.6133 40.8043 89.7838 40.1274 90.1218 39.5426C90.4598 38.9578 90.919 38.4826 91.4993 38.1142C92.0796 37.7457 92.7512 37.4826 93.514 37.3218C94.2782 37.1624 95.0754 37.082 95.9085 37.082C96.2959 37.082 96.7012 37.1054 97.1275 37.1536C97.5522 37.2004 98.0054 37.2808 98.49 37.3934V36.8276C98.49 36.4314 98.4407 36.0542 98.3449 35.696C98.2477 35.3378 98.0787 35.022 97.8379 34.7486C97.5956 34.4752 97.277 34.2632 96.8807 34.1126C96.4843 33.962 95.9863 33.886 95.388 33.886C94.5759 33.886 93.8295 33.943 93.1535 34.0556C92.4775 34.1682 91.9256 34.2998 91.5008 34.4504L91.0656 31.6784C91.5098 31.5278 92.1589 31.3772 93.0084 31.2266C93.8595 31.076 94.7688 31 95.7365 31H95.738Z" fill="#17161C"/>
<path d="M114.188 34.448C113.898 34.3545 113.495 34.255 112.984 34.1512C112.471 34.0474 111.877 33.9963 111.2 33.9963C110.812 33.9963 110.402 34.0343 109.967 34.1088C109.532 34.1849 109.227 34.2507 109.052 34.3077V46.1573H105.543V32.0723C106.221 31.8266 107.067 31.5971 108.081 31.3793C109.097 31.1629 110.223 31.0547 111.461 31.0547C111.693 31.0547 111.964 31.0678 112.273 31.0971C112.583 31.1249 112.893 31.1629 113.202 31.2097C113.512 31.2579 113.812 31.3135 114.101 31.3793C114.391 31.445 114.623 31.5065 114.798 31.5635L114.189 34.448H114.188Z" fill="#17161C"/>
<path d="M127.211 33.7737C126.824 34.1684 126.317 34.7254 125.689 35.4418C125.059 36.1582 124.388 36.955 123.671 37.8322C122.956 38.7094 122.237 39.6232 121.51 40.575C120.785 41.5267 120.132 42.4361 119.552 43.3046H127.385V46.1599H115.316V44.0385C115.743 43.2841 116.275 42.4639 116.912 41.5779C117.551 40.6919 118.209 39.8016 118.885 38.9054C119.563 38.0106 120.234 37.1568 120.901 36.3454C121.568 35.5339 122.164 34.8278 122.686 34.224H115.695V31.3672H127.211V33.7722V33.7737Z" fill="#17161C"/>
</g>
<defs>
<clipPath id="clip0_1458_145586">
<rect width="128" height="33.5738" fill="white" transform="translate(0 24.2109)"/>
</clipPath>
</defs>
</svg>
