<svg width="123" height="82" viewBox="0 0 123 82" fill="none" xmlns="http://www.w3.org/2000/svg">
<g clip-path="url(#clip0_1458_145599)">
<path fill-rule="evenodd" clip-rule="evenodd" d="M27.9388 49.2333L19.5416 57.7389C18.6557 58.6362 17.455 59.0225 16.2993 58.8938C15.431 58.7987 14.5862 58.4124 13.9193 57.7389L5.52213 49.2333C4.74577 48.4469 4.35857 47.4169 4.35857 46.3868C4.35857 45.3568 4.74577 44.3248 5.52213 43.5384L13.9193 35.0328C14.7817 34.1592 15.9414 33.771 17.0678 33.868C17.9693 33.9453 18.8513 34.3335 19.5416 35.0328L27.9388 43.5384C28.7152 44.3248 29.1024 45.3548 29.1024 46.3849C29.1024 47.4169 28.7152 48.4469 27.9388 49.2333ZM32.5891 43.4077L32.597 43.4037L32.5559 43.2908C32.5246 43.2076 32.4992 43.1264 32.4659 43.0432L27.3736 29.1557L24.3093 33.6026L16.7334 19C16.7334 19 4.79271 36.9878 1.76549 41.5754H1.77136C-0.454078 44.9428 -0.104031 49.5403 2.83323 52.5135L10.6809 60.4626C14.021 63.8458 19.4379 63.8458 22.7781 60.4626L30.6257 52.5135C33.0585 50.0494 33.696 46.478 32.5872 43.4097L32.5891 43.4077ZM16.7295 38.1526C15.3645 38.1526 14.2596 39.2717 14.2596 40.6543C14.2596 42.037 15.3645 43.1561 16.7295 43.1561C18.0945 43.1561 19.1994 42.037 19.1994 40.6543C19.1994 39.2717 18.0925 38.1526 16.7295 38.1526ZM16.7295 49.6156C15.3645 49.6156 14.2596 50.7367 14.2596 52.1174C14.2596 53.498 15.3645 54.6191 16.7295 54.6191C18.0945 54.6191 19.1994 53.498 19.1994 52.1174C19.1994 50.7367 18.0925 49.6156 16.7295 49.6156ZM22.3869 43.8851C21.022 43.8851 19.9171 45.0062 19.9171 46.3868C19.9171 47.7675 21.0239 48.8886 22.3869 48.8886C23.75 48.8886 24.8568 47.7675 24.8568 46.3868C24.8568 45.0062 23.75 43.8851 22.3869 43.8851ZM8.6002 46.3868C8.6002 47.7695 9.70509 48.8886 11.0701 48.8886C12.4351 48.8886 13.54 47.7675 13.54 46.3868C13.54 45.0062 12.4331 43.8851 11.0701 43.8851C9.70705 43.8851 8.6002 45.0062 8.6002 46.3868ZM51.0203 41.7715C50.465 41.7715 49.9233 41.8726 49.3933 42.0587C48.8653 42.2469 48.4018 42.5421 47.9775 42.9422C47.5531 43.3443 47.2226 43.8534 46.986 44.4635C46.7357 45.0795 46.6164 45.7966 46.6164 46.6265C46.6164 47.4565 46.7357 48.2013 46.9997 48.8034C47.252 49.4056 47.5825 49.9028 47.9912 50.291C48.4018 50.6793 48.8653 50.9744 49.3933 51.1606C49.9233 51.3488 50.465 51.4419 51.0203 51.4419C51.6285 51.4419 52.1976 51.329 52.7393 51.1071C53.2673 50.8793 53.7445 50.5585 54.1551 50.1286C54.5521 49.7067 54.8826 49.1976 55.1075 48.6073C55.3461 48.0171 55.4654 47.3416 55.4654 46.5909C55.4654 45.8401 55.3461 45.1904 55.1075 44.5883C54.8826 43.9861 54.5521 43.477 54.1551 43.061C53.7464 42.653 53.2693 42.3301 52.7393 42.1102C52.1976 41.8825 51.6285 41.7695 51.0203 41.7695V41.7715ZM46.681 39.5411C47.9247 38.1466 49.6436 37.4514 51.8534 37.4514C53.0698 37.4514 54.1942 37.6851 55.2131 38.1407C56.2437 38.6022 57.1315 39.24 57.8707 40.0561C58.6236 40.8742 59.2064 41.8389 59.617 42.964C60.0394 44.0831 60.2506 45.3014 60.2506 46.6285C60.2506 47.9557 60.0394 49.1739 59.617 50.293C59.2064 51.4181 58.6236 52.3828 57.8981 53.2009C57.1569 54.011 56.271 54.6548 55.2385 55.1104C54.1923 55.5719 53.0698 55.7997 51.8515 55.7997C50.6331 55.7997 49.5889 55.5858 48.6365 55.15C47.6842 54.7083 46.9039 54.0784 46.2957 53.2544V55.3778H41.9563V32.7212H46.679V39.5391L46.681 39.5411ZM62.8691 55.3778H67.5918V32.7212H62.8691V55.3738V55.3778ZM78.0326 52.2956C79.0651 52.2956 79.9373 51.9747 80.6374 51.3369C81.3512 50.7011 81.7091 49.8632 81.7091 48.8252V48.6113H78.0052C76.3919 48.6113 75.5842 49.2016 75.5842 50.3802C75.5842 50.9962 75.8228 51.4716 76.2726 51.8004C76.7224 52.1292 77.3169 52.2956 78.0326 52.2956V52.2956ZM78.985 37.4514C80.084 37.4514 81.0891 37.6118 81.9887 37.9327C82.902 38.2476 83.6822 38.723 84.3295 39.347C84.9905 39.9769 85.4931 40.7534 85.851 41.6844C86.2206 42.6154 86.3926 43.7068 86.3926 44.9607V55.3778H82.0943V53.6763C81.4861 54.3398 80.745 54.8549 79.8454 55.2372C78.9458 55.6115 77.927 55.7997 76.7771 55.7997C75.8521 55.7997 75.0054 55.665 74.2642 55.3976C73.5231 55.1223 72.8875 54.7538 72.3732 54.3002C71.8569 53.8367 71.4736 53.288 71.2096 52.6522C70.9319 52.0163 70.799 51.3191 70.799 50.5624C70.799 48.956 71.3934 47.7021 72.5707 46.8048C73.7479 45.9075 75.3476 45.4578 77.3716 45.4578H81.711V44.6814C81.711 43.7108 81.4451 42.96 80.9034 42.4173C80.3734 41.8745 79.554 41.5992 78.455 41.5992C77.5417 41.5992 76.7361 41.8131 76.0223 42.235C75.3202 42.6629 74.5947 43.2532 73.879 44.0099L71.458 41.0683C73.4155 38.6577 75.9284 37.4514 78.983 37.4514H78.985ZM114.037 41.3159C113.018 41.3159 112.132 41.623 111.377 42.2548C110.636 42.8768 110.121 43.7484 109.842 44.8537H117.778C117.738 43.7226 117.355 42.8511 116.628 42.235C115.9 41.619 115.04 41.3179 114.035 41.3179L114.037 41.3159ZM114.222 37.4514C115.427 37.4514 116.538 37.6653 117.543 38.0872C118.548 38.5151 119.395 39.0915 120.109 39.8283C120.822 40.5593 121.364 41.4229 121.749 42.4153C122.133 43.4057 122.332 44.4654 122.332 45.5965C122.332 46.0996 122.293 46.581 122.226 47.0504C122.16 47.5258 122.08 47.9141 122.013 48.2231H109.844C110.149 49.3541 110.73 50.2197 111.59 50.808C112.451 51.3983 113.522 51.6915 114.778 51.6915C115.703 51.6915 116.563 51.531 117.343 51.2161C118.124 50.8952 118.877 50.4654 119.604 49.9226L121.522 53.1791C120.543 54.009 119.485 54.6528 118.347 55.1084C117.197 55.5699 115.967 55.7977 114.629 55.7977C113.291 55.7977 111.985 55.564 110.82 55.0945C109.656 54.6191 108.651 53.9694 107.818 53.1454C106.971 52.3154 106.31 51.3508 105.833 50.2376C105.358 49.1323 105.119 47.9259 105.119 46.6265C105.119 45.3271 105.358 44.1208 105.821 43.0095C106.285 41.9042 106.932 40.9336 107.74 40.1076C108.559 39.2777 109.525 38.6339 110.636 38.1585C111.735 37.6891 112.938 37.4494 114.22 37.4494L114.222 37.4514ZM103.025 37.8554H89.2908V41.8943H96.7747L89.2908 52.0896V55.3936H103.011V51.3547H95.0167L103.025 40.7435V37.8574V37.8554Z" fill="#17161C"/>
</g>
<defs>
<clipPath id="clip0_1458_145599">
<rect width="122" height="44" fill="white" transform="translate(0.330078 19)"/>
</clipPath>
</defs>
</svg>
