<svg width="151" height="82" viewBox="0 0 151 82" fill="none" xmlns="http://www.w3.org/2000/svg">
<path d="M28.5774 28.8037L24.9286 26.9473C24.6177 26.7919 24.2428 27.0113 24.2428 27.368V32.2605L19.5241 29.7914V24.8075C19.5241 24.4965 19.3503 24.213 19.076 24.0759L15.2534 22.1463C15.0523 22.0457 14.8419 22 14.6316 22V34.8576C14.8053 34.8576 14.9791 34.8942 15.1437 34.9765L28.047 41.5058C28.6048 41.7893 29.2633 41.3778 29.2633 40.756V29.9194C29.2633 29.4439 28.9981 29.0141 28.5774 28.8037Z" fill="#595959"/>
<path d="M15.2167 58.8628L23.9866 54.7019C24.4621 54.4733 24.7639 53.9978 24.7639 53.4765V45.9047C24.7639 45.3834 24.4713 44.917 24.0049 44.6884L15.235 40.3812C15.043 40.2898 14.8418 40.244 14.6406 40.244V59C14.8418 59 15.0339 58.9543 15.2259 58.872L15.2167 58.8628Z" fill="#595959"/>
<path d="M14.0098 22.1463L10.1873 24.0759C9.91295 24.213 9.7392 24.4965 9.7392 24.8075V29.7914L5.02049 32.2605V27.368C5.02049 27.0205 4.6547 26.7919 4.33463 26.9473L0.685859 28.8037C0.265199 29.0141 0 29.453 0 29.9194V40.756C0 41.387 0.658425 41.7893 1.21626 41.5058L14.1196 34.9765C14.275 34.8942 14.4579 34.8576 14.6317 34.8576V22C14.4213 22 14.211 22.0457 14.0098 22.1463Z" fill="#ABABAB"/>
<path d="M5.26756 44.6886C4.80118 44.9172 4.50854 45.3928 4.50854 45.9049V53.4768C4.50854 53.998 4.81032 54.4735 5.28585 54.7022L14.0557 58.863C14.2386 58.9545 14.4398 58.9911 14.641 58.9911V40.2351C14.4398 40.2351 14.2295 40.2808 14.0466 40.3723L5.27671 44.6795L5.26756 44.6886Z" fill="#ABABAB"/>
<path d="M48.7053 42.4295H54.5854C53.9819 46.2063 50.9092 47.9346 48.0194 47.9346C45.1297 47.9346 41.106 45.8496 41.106 40.1158C41.106 34.382 45.7424 32.736 48.4858 32.736C51.8145 32.736 53.9544 34.6472 53.9818 34.6747L54.9146 33.6688L55.8474 32.6628C55.7285 32.5531 52.9302 30.0017 48.4858 30.0017C43.4562 30.0017 38.3625 33.4767 38.3625 40.125C38.3625 46.7732 43.3373 50.6872 48.0194 50.6872C52.7016 50.6872 57.4294 47.3859 57.4294 41.0669V39.6952H48.6962V42.4386L48.7053 42.4295Z" fill="#17161C"/>
<path d="M121.178 36.6227C117.3 36.6227 114.145 39.7777 114.145 43.6551C114.145 47.5325 117.3 50.6874 121.178 50.6874C125.055 50.6874 128.21 47.5325 128.21 43.6551C128.21 39.7777 125.055 36.6227 121.178 36.6227ZM121.178 47.9348C118.818 47.9348 116.889 46.0144 116.889 43.6459C116.889 41.2774 118.809 39.357 121.178 39.357C123.546 39.357 125.467 41.2774 125.467 43.6459C125.467 46.0144 123.546 47.9348 121.178 47.9348Z" fill="#17161C"/>
<path d="M70.2136 38.3509C68.979 37.2809 67.6805 36.6317 65.9247 36.6317C62.0473 36.6317 58.8923 39.7866 58.8923 43.664C58.8923 47.5414 62.0473 50.6964 65.9247 50.6964C67.6805 50.6964 68.979 50.0471 70.2136 48.9771L70.5245 50.6323H73.2679V37.0798H70.5245L70.2136 38.36V38.3509ZM65.9247 47.9438C63.5653 47.9438 61.6358 46.0234 61.6358 43.6549C61.6358 41.2864 63.5562 39.366 65.9247 39.366C68.2932 39.366 70.2136 41.2864 70.2136 43.6549C70.2136 46.0234 68.2932 47.9438 65.9247 47.9438Z" fill="#17161C"/>
<path d="M109.426 38.0949C108.238 37.1805 106.756 36.6226 105.138 36.6226C101.26 36.6226 98.1052 39.7776 98.1052 43.655C98.1052 47.5324 101.26 50.6873 105.138 50.6873C106.747 50.6873 108.238 50.1386 109.426 49.215L109.737 50.6233H112.17V29.4257H109.426V38.0949ZM105.138 47.9347C102.778 47.9347 100.849 46.0143 100.849 43.6458C100.849 41.2773 102.769 39.3569 105.138 39.3569C107.506 39.3569 109.426 41.2773 109.426 43.6458C109.426 46.0143 107.506 47.9347 105.138 47.9347Z" fill="#17161C"/>
<path d="M145.612 36.6223C143.546 36.6223 141.982 37.619 140.93 38.625C140.162 37.5002 138.891 36.6223 136.962 36.6223C135.334 36.6223 133.999 37.1984 132.974 37.9208L132.673 37.0612H130.231V50.6138H132.974V42.4658C133.011 40.71 134.474 39.3566 136.257 39.3566C138.809 39.3566 139.138 41.533 139.138 42.8407V50.6046H141.881V42.6212C141.881 41.7251 142.512 39.3566 144.991 39.3566C146.783 39.3566 147.624 40.6094 147.624 42.6853V50.6046H150.368V41.5696C150.331 39.576 149.042 36.604 145.612 36.604V36.6223Z" fill="#17161C"/>
<path d="M91.2924 36.6223C89.2256 36.6223 87.6619 37.619 86.6102 38.625C85.8421 37.5002 84.5709 36.6223 82.6412 36.6223C81.0134 36.6223 79.6783 37.1984 78.6541 37.9208L78.3523 37.0612H75.9106V50.6138H78.6541V42.4658C78.6907 40.71 80.1538 39.3566 81.9371 39.3566C84.4886 39.3566 84.8178 41.533 84.8178 42.8407V50.6046H87.5613V42.6212C87.5613 41.7251 88.1923 39.3566 90.6705 39.3566C92.4629 39.3566 93.3042 40.6094 93.3042 42.6853V50.6046H96.0476V41.5696C96.0111 39.576 94.7217 36.604 91.2924 36.604V36.6223Z" fill="#17161C"/>
</svg>
