<svg width="85" height="82" viewBox="0 0 85 82" fill="none" xmlns="http://www.w3.org/2000/svg">
<mask id="mask0_1_4494" style="mask-type:luminance" maskUnits="userSpaceOnUse" x="0" y="13" width="85" height="56">
<path d="M85 13H0V68.2062H85V13Z" fill="white"/>
</mask>
<g mask="url(#mask0_1_4494)">
<path d="M0.131348 67.8994H5.34527C11.1726 67.8994 11.786 63.8247 11.786 60.1005V50.7242C11.786 46.2113 10.5592 43.5386 5.34527 43.5386H0.131348V67.8994ZM3.89939 46.7809H5.1262C7.6236 46.7809 7.97411 48.2268 7.97411 50.4175V60.6263C7.97411 63.1675 7.6236 64.701 5.1262 64.701H3.89939V46.7809ZM14.6339 67.8994H18.4019V56.9897H19.2782C21.469 56.9897 21.8195 57.6907 21.8195 60.6263C21.8195 62.4226 21.7757 66.4536 22.0824 67.8994H25.719C25.4561 66.4536 25.4999 62.4665 25.4999 60.4072C25.4999 57.0773 24.6674 56.0695 23.2653 55.4123C24.1855 55.018 25.7628 54.0541 25.7628 50.286V49.366C25.7628 44.9845 23.5721 43.4948 19.8479 43.4948H14.6339V67.8994ZM18.3582 46.6494H19.4097C21.5566 46.6494 21.9509 47.7886 21.9509 49.6726V50.5051C21.9509 53.1778 21.2061 53.9226 19.2345 53.9226H18.3582V46.6494ZM37.5927 53.3092H32.2473V47.0438H37.8994V43.5386H28.4793V67.9433H37.987L38.469 64.4819H32.2473V56.8144H37.6365V53.3092H37.5927ZM48.0643 61.3711L49.0282 67.8994H52.9716L48.8968 43.4948H43.5953L39.6519 67.8994H43.5077L44.3401 61.3711H48.0643ZM44.7782 57.9536C45.2602 54.317 46.005 49.1031 46.0927 47.0876H46.2241C46.5308 49.8479 47.0128 53.7912 47.6262 57.9536H44.7782ZM67.255 67.8994H70.8478V43.5386H65.4148C64.4509 49.366 63.0927 56.6392 62.6984 60.1005H62.6545C62.304 56.6829 61.3839 49.7165 60.42 43.5386H54.8118V67.9433H58.2293V59.268C58.2293 55.0618 58.0978 49.5412 58.0102 46.6933H58.0979C58.6674 51.1623 60.0257 61.5463 60.8582 67.8994H64.4072C65.4587 60.8453 66.8169 50.9433 67.3862 46.7371H67.4304C67.3427 49.5412 67.3427 54.7113 67.3427 58.8299V67.8994H67.255ZM72.9507 60.7139V62.1597C72.9507 65.3582 74.0463 68.25 78.5594 68.25C83.1159 68.25 84.3427 64.9639 84.3427 61.5026C84.3427 57.4278 83.2036 55.8943 79.5667 53.1778C77.4202 51.6005 77.0695 50.768 77.0695 49.0154C77.0695 47.3943 77.4202 46.3428 78.6471 46.3428C79.8739 46.3428 80.1804 47.3505 80.1804 49.1031V50.3299H83.9043V49.0154C83.9043 46.3427 83.2036 43.1443 78.7347 43.1443C74.3094 43.1443 73.3449 46.3865 73.3449 49.6288C73.3449 53.2655 74.7913 54.5799 77.4202 56.6392C80.0051 58.7422 80.6188 59.5309 80.6188 62.1597C80.6188 63.7371 80.2239 65.1392 78.7347 65.1392C77.2884 65.1392 76.763 64.1314 76.763 62.335V60.8015H72.9507V60.7139Z" fill="#17161C"/>
<path d="M22.8711 13.2629V31.7526C22.8711 35.915 24.7551 38.018 28.6108 38.018C32.6855 38.018 34.4381 35.6082 34.4381 31.7526V13.2629H30.6701V31.7964C30.6701 33.4613 30.1881 34.6005 28.6984 34.6005C27.2525 34.6005 26.6391 33.5928 26.6391 31.7964V13.2629H22.8711ZM44.384 30.3505V31.7526C44.384 33.5489 44.0335 34.6443 42.6752 34.6443C41.2294 34.6443 40.9226 33.4175 40.9226 31.7964V18.8711C40.9226 17.2062 41.317 16.3299 42.5875 16.3299C43.902 16.3299 44.2963 17.25 44.2963 18.8711V20.4046H48.0644V19.3093C48.0644 15.8917 47.1881 12.8685 42.6314 12.8685C38.7757 12.8685 37.067 15.4098 37.067 19.134V31.4459C37.067 35.1263 38.0309 37.9742 42.5438 37.9742C47.7139 37.9742 48.152 34.0747 48.152 31.2706V30.3067H44.384V30.3505ZM50.3428 37.6675H54.0231V29.9562L55.6443 26.6701L58.8428 37.6675H62.9175L58.1855 22.7706L62.6546 13.2629H58.4484C57.0902 16.6366 55.0309 21.8943 54.067 24.3041H54.0231V13.2629H50.3428V37.6675ZM70.4973 37.6675V29.4304C70.4973 28.9046 70.5414 28.6418 70.5849 28.5103L75.2733 13.2629H71.2422C70.3219 17.1624 69.2269 21.5438 68.7451 24.4355H68.7009C68.3067 21.7629 67.211 17.2062 66.2036 13.2629H62.0412L66.5979 28.2036C66.6855 28.5541 66.6855 28.7294 66.6855 28.9923V37.6675H70.4973Z" fill="#17161C"/>
<path d="M20.5493 37.6238V34.25H13.4952C16.0803 29.3428 18.7529 21.2809 19.673 13.1753H15.7298C14.722 21.8067 12.3998 29.2552 9.5957 34.6882V37.6238H20.5493Z" fill="#17161C"/>
</g>
</svg>
