<svg width="160" height="82" viewBox="0 0 160 82" fill="none" xmlns="http://www.w3.org/2000/svg">
<g clip-path="url(#clip0_40_61)">
<path d="M51.7184 57.7416L50.3003 56.4023L0 64.5166L0.0787789 65.0286L61.0537 58.2537L50.6155 59.4353" fill="#3A3B3B"/>
<path d="M60.5417 54.7478L50.3004 56.4022L51.7184 57.7414L50.6155 59.3958L61.0143 58.2141L62.9838 56.2446" fill="#464646"/>
<path d="M51.7184 57.7415L0 64.7528L0.0787789 65.0285L50.6155 59.3958" fill="#231F20"/>
<path d="M50.3004 56.4022L51.7184 57.7414L63.0232 56.1658L60.5417 54.7478" fill="#8B8B8B"/>
<path d="M31.2753 66.4466C25.3668 63.1772 19.0645 58.8444 10.9109 52.3845L10.3201 51.9119L10.9897 51.5967C12.644 50.809 14.4166 49.8242 16.2679 48.7213L16.5042 48.5638L16.9769 48.7607C15.2831 39.1497 13.8257 31.4293 12.644 24.5756L12.4865 24.1817H13.0379L31.5116 23H31.9843C37.8927 23.3939 43.9587 23.709 49.9459 23.9847H50.4973L50.3791 24.5362C49.0793 31.5081 47.7401 39.1891 46.0463 48.7607L46.5584 48.5244L46.7553 48.6425C48.5672 49.7454 50.3004 50.7302 51.9941 51.518L52.7031 51.9119L52.1123 52.3058C43.9587 58.8444 37.6564 63.1772 31.7479 66.4466L31.5116 66.5647L31.2753 66.4466Z" fill="#231F20"/>
<path d="M31.3935 66.2496C25.485 62.9803 19.1827 58.6475 11.0291 52.227L10.714 51.9906L11.1079 51.7937C12.8016 51.0059 14.5742 50.0212 16.4255 48.9183L16.5436 48.8395L17.3314 49.2334L17.2526 49.1546C15.5589 39.3072 14.1015 31.5475 12.841 24.615V24.3392H13.0774L31.5116 23.2363H31.9843C37.8927 23.6302 43.9587 23.9453 49.9459 24.2211H50.261L50.1822 24.5362C48.8824 31.5475 47.5037 39.3466 45.8494 49.0364V49.1152L46.5584 48.7213L46.6766 48.8395C48.4885 49.9424 50.2216 50.9271 51.9154 51.7543L52.3093 51.9906L51.9941 52.227C43.8405 58.6475 37.5382 62.9803 31.6298 66.2496L31.5116 66.3284L31.3935 66.2496Z" fill="#231F20"/>
<path d="M44.3132 52.7391C40.0985 55.6145 35.805 58.2536 31.5116 60.617V58.6475C33.0084 58.0566 34.5052 57.4658 36.0414 56.7568V47.8154L39.1925 55.2994C40.8863 54.5116 42.6194 53.645 44.3132 52.7391ZM41.7529 36.6682C41.5559 38.2437 40.3348 39.9769 38.9956 40.5283L36.0808 41.71L36.1596 36.2743L39.5077 34.8169C40.8863 34.2654 41.871 35.0926 41.7135 36.6682H41.7529Z" fill="#464646"/>
<path d="M46.4009 49.8635L45.4949 50.2574L44.4314 52.0693L44.3132 52.739L50.6155 52.2269C49.2369 51.5179 47.8583 50.7301 46.4009 49.8635Z" fill="#3A3B3B"/>
<path d="M43.4467 53.1724C43.4467 53.1724 43.4467 53.2512 43.5254 53.2512L44.3132 52.7391L43.4467 53.133V53.1724ZM46.4009 40.7253C45.6131 43.7189 40.8864 45.5309 40.8864 45.5309L44.3132 52.7391L44.4314 52.0695C44.4314 52.0695 46.4009 40.7253 46.4009 40.7253Z" fill="#464646"/>
<path d="M27.3364 56.8749C28.715 57.5445 30.0936 58.0566 31.5117 58.6474V60.6169C27.2576 58.3323 23.0035 55.6538 18.8282 52.739C19.8918 53.3693 20.9947 53.9207 22.0582 54.4722L20.7583 41.4736L24.0277 49.903L27.3758 44.2703L27.3364 56.8749Z" fill="#8B8B8B"/>
<path d="M27.3363 30.3659L23.6337 36.4713L20.7977 27.8056L13.8651 25.1665C15.4407 33.714 18.71 52.1877 18.71 52.2271L17.5283 50.2576L16.6618 49.8637C15.2044 50.7303 13.7863 51.5181 12.4077 52.2271C18.6312 57.072 25.0123 61.6805 31.5116 65.2256L18.8282 52.8179C19.8917 53.4087 20.9946 53.9996 22.0581 54.5117L20.7583 41.5131L24.0276 49.9031L27.3757 44.2704V56.875C28.7543 57.5446 30.133 58.0567 31.551 58.6475V31.9809L27.3363 30.3659Z" fill="#3A3B3B"/>
<path d="M31.5116 24.1816C25.6032 24.5755 19.6948 24.9694 13.8651 25.2058L20.7977 27.8449L23.5549 36.5105L27.3363 30.4052C28.7149 30.9566 30.0936 31.5081 31.5116 31.9808L36.7898 30.0113L49.1581 25.2058C43.2497 24.8907 37.42 24.5755 31.5116 24.1816Z" fill="#8B8B8B"/>
<path d="M51.9942 51.7543C50.2611 50.9665 48.4491 49.9818 46.6766 48.8395L46.5584 48.7607C46.5584 48.7607 46.0464 48.997 45.8888 49.1546C47.5432 39.4254 48.9218 31.6263 50.2217 24.5756V24.2605H49.9459L31.5117 23.2363C25.4851 23.6302 19.2222 23.9453 13.0774 24.2605H12.7623V24.5756C14.1409 31.6657 15.5195 39.4254 17.2527 49.1152L16.5437 48.7213L16.3861 48.8395C14.5742 50.0212 12.7623 50.9665 11.0291 51.7543L10.6353 51.9512L11.0291 52.2664C19.1828 58.6868 25.4457 63.0197 31.3935 66.289H31.6692C37.5776 62.9803 43.88 58.6475 51.9942 52.227L52.3881 51.9512L51.9942 51.7543ZM44.3132 52.739C40.0986 55.6145 35.8051 58.2536 31.5117 60.6169C27.2576 58.3323 23.0035 55.6539 18.8283 52.739L31.5117 65.3043C25.0518 61.7592 18.6313 57.1113 12.4078 52.3058L16.6618 49.9424L17.5678 50.3363L18.7495 52.3058C18.6707 52.0694 15.4014 33.3988 13.8652 25.2058C19.7736 24.8907 25.682 24.5756 31.5117 24.1817C37.4201 24.5756 43.3285 24.8907 49.1581 25.1664L47.8977 32.2565C48.5279 26.2299 42.1468 27.9237 42.1468 27.9237L36.7899 29.8931C35.0173 30.6809 33.2448 31.3112 31.5117 31.9808V58.6475C33.0085 58.0566 34.5053 57.4658 36.0415 56.7568V47.8154L39.1926 55.2994C40.8864 54.5116 42.6195 53.645 44.3132 52.739L40.847 45.5308C40.847 45.5308 45.6525 43.7189 46.3615 40.7253C46.3615 40.7253 44.5102 51.7543 44.392 52.0694L45.4949 50.2969L46.4009 49.903L50.6156 52.2664L44.3132 52.739ZM41.7529 36.6681C41.556 38.2437 40.3349 39.9769 38.9957 40.5283L36.0808 41.71L36.1596 36.2742L39.5077 34.8168C40.8864 34.2654 41.8711 35.0926 41.7135 36.6681H41.7529Z" fill="#231F20"/>
<path d="M51.9942 51.7543C50.2611 50.9665 48.4491 49.9818 46.6766 48.8395L46.5584 48.7607C46.5584 48.7607 46.0464 48.997 45.8888 49.1546C47.5432 39.4254 48.9218 31.6263 50.2217 24.5756V24.2605H49.9459L31.5117 23.2363C25.4851 23.6302 19.2222 23.9453 13.0774 24.2605H12.7623V24.5756C14.1409 31.6657 15.5195 39.4254 17.2527 49.1152L16.5437 48.7213L16.3861 48.8395C14.5742 50.0212 12.7623 50.9665 11.0291 51.7543L10.6353 51.9512L11.0291 52.2664C19.1828 58.6868 25.4457 63.0197 31.3935 66.289H31.6692C37.5776 62.9803 43.88 58.6475 51.9942 52.227L52.3881 51.9512L51.9942 51.7543ZM44.3132 52.739C40.0986 55.6145 35.8051 58.2536 31.5117 60.6169C27.2576 58.3323 23.0035 55.6539 18.8283 52.739L31.5117 65.3043C25.0518 61.7592 18.6313 57.1113 12.4078 52.3058L16.6618 49.9424L17.5678 50.3363L18.7495 52.3058C18.6707 52.0694 15.4014 33.3988 13.8652 25.2058C19.7736 24.8907 25.682 24.5756 31.5117 24.1817C37.4201 24.5756 43.3285 24.8907 49.1581 25.1664L47.8977 32.2565C48.5279 26.2299 42.1468 27.9237 42.1468 27.9237L36.7899 29.8931C35.0173 30.6809 33.2448 31.3112 31.5117 31.9808V58.6475C33.0085 58.0566 34.5053 57.4658 36.0415 56.7568V47.8154L39.1926 55.2994C40.8864 54.5116 42.6195 53.645 44.3132 52.739L40.847 45.5308C40.847 45.5308 45.6525 43.7189 46.3615 40.7253C46.3615 40.7253 44.5102 51.7543 44.392 52.0694L45.4949 50.2969L46.4009 49.903L50.6156 52.2664L44.3132 52.739ZM41.7529 36.6681C41.556 38.2437 40.3349 39.9769 38.9957 40.5283L36.0808 41.71L36.1596 36.2742L39.5077 34.8168C40.8864 34.2654 41.8711 35.0926 41.7135 36.6681H41.7529Z" fill="#231F20"/>
<path d="M47.8976 32.2959C48.5278 26.1512 42.1467 27.8449 42.1467 27.8449L49.1581 25.0876L47.8976 32.2565V32.2959Z" fill="#464646"/>
<path d="M13.4712 24.6939L30.8026 23.5122L49.3156 24.7727L49.0005 25.1666L31.5116 24.3788L13.9833 25.1666L16.3466 39.5043L13.4712 25.3241" fill="#231F20"/>
<path d="M89.5716 35.368C88.1536 34.1863 85.9871 34.3439 85.4357 34.6196C84.7661 34.8953 84.2146 35.368 83.7813 36.0376V34.5014H79.5667V47.6969H83.7813V41.6309C83.8207 40.4098 84.1752 39.5433 84.8448 39.11C85.4357 38.7161 86.2235 38.6767 87.1294 38.9918L87.3658 39.0706L89.8473 35.5649L89.5716 35.368Z" fill="black"/>
<path d="M97.8434 37.2587C94.968 36.5103 94.5741 36.1952 94.5741 35.4468C94.5741 34.7378 95.2437 34.3045 96.3466 34.3045C97.5677 34.3045 98.907 34.8166 100.404 35.8407L100.679 36.0376L102.925 32.8077L102.688 32.6108C100.916 31.1927 98.7888 30.4443 96.4254 30.4443C92.841 30.4443 90.3594 32.6108 90.3594 35.7225C90.3594 39.3464 92.8016 40.2523 96.0315 41.0795C98.8676 41.7885 99.0645 42.2218 99.0645 42.852C99.0645 43.9943 97.6465 44.1125 97.0557 44.1125C95.4407 44.1125 93.9439 43.5216 92.3683 42.2218L92.132 42.0248L89.5717 45.0578L89.808 45.2548C91.7775 46.9879 94.2984 47.9726 96.9769 47.9726C100.837 47.9726 103.319 45.8456 103.319 42.5763C103.279 39.3464 101.113 38.1253 97.8434 37.2587Z" fill="black"/>
<path d="M109.739 29.9717H105.524V47.6969H109.739V29.9717Z" fill="black"/>
<path d="M118.956 34.2651C114.938 34.2651 111.827 37.2587 111.827 41.1189C111.827 45.0185 114.86 47.9727 118.917 47.9727C122.934 47.9727 126.046 44.9791 126.046 41.1189C126.046 37.2193 122.974 34.2651 118.956 34.2651ZM118.956 44.2701C117.262 44.2701 116.002 42.9308 116.002 41.1583C116.002 39.307 117.184 38.0465 118.917 38.0465C120.611 38.0465 121.871 39.3858 121.871 41.1583C121.871 42.9702 120.65 44.2701 118.956 44.2701Z" fill="black"/>
<path d="M146.687 35.2131H151.258L153.584 41.7961L155.749 35.2131H160L155.509 47.9872C155.028 49.3979 154.546 50.4167 153.985 50.8869C152.862 51.984 150.216 52.1408 148.692 51.9057V48.2223C149.494 48.4575 150.777 48.7709 151.338 46.8901L146.687 35.2131ZM133.855 32V35.5266H136.261V38.9748H133.855V43.2851C133.855 43.7553 133.935 44.1472 134.015 44.3039C134.175 44.539 134.416 44.6957 134.737 44.6957C135.058 44.6957 135.539 44.6174 136.1 44.3823V47.6738C135.138 47.9089 134.256 47.9872 133.454 47.9872C132.331 47.9872 131.529 47.8305 131.048 47.517C130.566 47.2036 130.165 46.8117 129.925 46.1848C129.684 45.5578 129.524 44.6174 129.524 43.2067V38.9748H128V35.5266H129.524V32H133.855ZM143.719 32V35.5266H146.125V38.9748H143.719V43.2851C143.719 43.7553 143.8 44.1472 143.88 44.3039C144.04 44.539 144.281 44.6957 144.602 44.6957C144.922 44.6957 145.323 44.6174 145.885 44.3823V47.6738C145.003 47.9089 144.12 47.9872 143.238 47.9872C142.195 47.9872 141.393 47.8305 140.912 47.517C140.351 47.2036 140.03 46.8117 139.789 46.1848C139.549 45.5578 139.388 44.6174 139.388 43.2067V38.9748H137.784V35.5266H139.388V32H143.719Z" fill="black"/>
<path d="M61 30H65.7927L68.9608 36.1811L72.6975 30H77.084V46.6415H72.6162V38.5585L69.1233 44.8189L65.7115 38.7962L65.6303 51H61V30Z" fill="black"/>
</g>
<defs>
<clipPath id="clip0_40_61">
<rect width="160" height="82" fill="white"/>
</clipPath>
</defs>
</svg>
