<svg width="130" height="82" viewBox="0 0 130 82" fill="none" xmlns="http://www.w3.org/2000/svg">
<path d="M117.578 50.0804C115.684 51.0468 113.816 51.3864 111.883 50.9554C108.958 50.2893 107.012 48.487 106.019 45.6528C105.876 45.2479 105.928 44.9345 106.215 44.5818C107.665 42.7533 107.573 40.0106 106.006 38.2735C105.784 38.0254 105.693 37.7772 105.706 37.4507C105.719 36.2361 105.706 35.0084 105.706 33.7937C105.719 32.5529 106.463 31.7171 107.56 31.704C108.671 31.6909 109.454 32.5529 109.454 33.8329C109.467 36.9021 109.454 39.9714 109.454 43.0407C109.454 45.5352 111.204 47.3507 113.555 47.3376C115.88 47.3246 117.578 45.5222 117.578 43.0407C117.578 40.0106 117.578 36.9936 117.578 33.9635C117.578 32.6052 118.335 31.7301 119.485 31.7171C120.673 31.704 121.457 32.5921 121.457 33.9766C121.457 40.2849 121.47 46.5932 121.457 52.9015C121.444 56.5454 118.949 59.7191 115.397 60.6595C111.883 61.5868 108.161 60.0456 106.359 56.9241C105.641 55.6964 105.823 54.5471 106.816 53.9463C107.822 53.3455 108.866 53.7243 109.624 54.965C110.669 56.676 112.589 57.4596 114.456 56.9372C116.337 56.4148 117.552 54.7822 117.578 52.7578C117.591 51.9088 117.578 51.073 117.578 50.0804Z" fill="#17161C"/>
<path d="M83.359 36.5496C83.359 32.4616 83.359 28.3736 83.359 24.2726C83.359 22.862 84.1035 22 85.305 22C86.4413 22 87.2119 22.8881 87.2119 24.2595C87.2119 32.4877 87.2119 40.7159 87.2119 48.9311C87.2119 50.3155 86.4674 51.1906 85.3181 51.2036C84.1165 51.2167 83.359 50.3547 83.3459 48.9441C83.359 44.817 83.359 40.6898 83.359 36.5496Z" fill="#17161C"/>
<path d="M52.81 31.6782C48.2649 31.7435 44.2683 35.0739 43.3933 39.5276C43.0537 41.2908 43.2757 43.0801 43.2104 44.5037C43.2104 46.2539 43.1973 47.6383 43.2104 49.0358C43.2235 50.3549 44.0071 51.2169 45.1303 51.2038C46.2797 51.1908 47.0241 50.3549 47.0372 49.0227C47.0502 46.6979 47.0372 44.3731 47.0502 42.0483C47.0633 38.1693 49.1661 35.8576 53.0059 35.518C54.2597 35.4004 55.0564 34.5776 54.9911 33.4675C54.9258 32.3834 54.0377 31.6651 52.81 31.6782Z" fill="#17161C"/>
<path d="M60.0588 33.8983C60.0588 32.54 59.2752 31.678 58.1128 31.678C56.9504 31.691 56.2059 32.5661 56.2059 33.9244C56.2059 38.9266 56.2059 43.9289 56.2059 48.9311C56.2059 50.3547 56.9504 51.2167 58.152 51.2037C59.3274 51.1906 60.0588 50.3417 60.0719 48.9572C60.085 46.4365 60.0719 43.9158 60.0719 41.382C60.0588 38.9005 60.0719 36.3929 60.0588 33.8983Z" fill="#17161C"/>
<path d="M58.1518 27.721C59.2359 27.721 60.0587 26.8981 60.0456 25.8272C60.0326 24.7693 59.1836 23.9334 58.1127 23.9464C57.0678 23.9595 56.1927 24.8346 56.1927 25.8664C56.2058 26.8981 57.0678 27.721 58.1518 27.721Z" fill="#17161C"/>
<path d="M9.29196 31.9394C5.08643 32.6186 1.56005 35.9621 1.24659 40.2199C0.789469 46.5804 1.10292 52.954 1.12905 59.3276C1.12905 60.3333 1.91269 60.9341 2.93142 60.9732C3.92403 61.0124 4.68155 60.5292 4.8644 59.4974C4.98194 58.8182 4.95582 58.113 4.95582 57.4208C4.96888 54.8217 4.95582 52.2095 4.95582 49.4407C5.47825 49.7411 5.83089 49.9501 6.18352 50.146C9.89275 52.1834 14.7252 51.5826 17.703 48.7224C20.916 45.64 21.7257 41.0557 19.7666 37.1506C17.8598 33.363 13.602 31.2341 9.29196 31.9394ZM10.9768 47.5469C7.67244 47.573 4.96888 44.8956 4.95582 41.6043C4.95582 38.2869 7.60713 35.6356 10.9245 35.6225C14.2289 35.6225 16.9455 38.2738 16.9586 41.552C16.9847 44.8172 14.2681 47.5208 10.9768 47.5469Z" fill="#17161C"/>
<path d="M32.4094 31.7307C27.1982 31.6393 22.8229 35.2962 22.2482 40.2593C21.6344 45.4966 24.7297 49.8981 29.8364 50.9821C32.6837 51.5829 35.3742 51.1911 37.8034 49.4018C37.9079 49.6238 37.9863 49.7675 38.0516 49.9242C38.4826 50.8123 39.1487 51.3609 40.1805 51.178C41.2384 50.9952 41.7347 50.2507 41.7347 49.2189C41.7347 46.3717 41.8261 43.5114 41.6563 40.6772C41.369 35.6228 37.3463 31.8221 32.4094 31.7307ZM32.0568 47.4427C28.674 47.4165 25.9966 44.8044 25.9966 41.5392C25.9966 38.2871 28.8308 35.5183 32.1482 35.5313C35.3219 35.5444 37.921 38.2349 37.921 41.487C37.9079 44.9089 35.4003 47.4557 32.0568 47.4427Z" fill="#17161C"/>
<path d="M72.1007 31.783C66.6414 31.8091 62.2008 36.1452 62.2008 41.4871C62.1877 47.2076 62.2008 52.9282 62.2008 58.6488C62.2008 60.1116 62.8799 60.9605 64.0684 60.9997C65.27 61.0258 66.0406 60.1638 66.0536 58.6879C66.0667 55.9713 66.0537 53.2547 66.0667 50.525C66.0667 50.2377 66.1059 49.9373 66.132 49.4541C68.1303 50.7601 70.1286 51.4132 72.3619 51.3479C77.7299 51.2042 81.9615 46.8158 81.8962 41.4348C81.8309 36.1061 77.4295 31.7699 72.1007 31.783ZM78.0042 42.1923C77.978 42.3882 77.9519 42.5842 77.9127 42.7801C77.8735 42.976 77.8213 43.1588 77.7691 43.3547C77.7429 43.4462 77.7038 43.5376 77.6776 43.629C77.6123 43.8119 77.534 43.9947 77.4556 44.1645C77.4164 44.2559 77.3642 44.3343 77.325 44.4257C77.2336 44.5955 77.1291 44.7653 77.0246 44.922C76.9201 45.0787 76.8026 45.2355 76.685 45.3791C76.6197 45.4575 76.5675 45.5228 76.5022 45.6012C76.3716 45.7448 76.241 45.8754 76.0973 46.006C75.9536 46.1367 75.81 46.2542 75.6532 46.3717C75.5749 46.424 75.4965 46.4893 75.4181 46.5415C75.2614 46.646 75.0916 46.7505 74.9218 46.8419C74.0729 47.2991 73.1064 47.5603 72.0746 47.5603C68.7572 47.5603 66.0798 44.8959 66.0798 41.5915C66.0798 38.2741 68.7311 35.6359 72.0616 35.6359C75.3659 35.6359 78.0564 38.3003 78.0564 41.5915C78.0433 41.7875 78.0303 41.9964 78.0042 42.1923Z" fill="#17161C"/>
<path d="M88.0217 46.8283C88.0478 46.3712 87.9825 45.8488 88.0608 45.3264C88.2437 44.1901 89.1971 43.4195 90.3987 43.4848C91.4566 43.537 92.3578 44.4774 92.3839 45.5745C92.397 45.9402 92.4884 46.2275 92.828 46.4104C93.1545 46.5802 93.4549 46.4888 93.7422 46.2928C95.4271 45.1696 97.1119 44.0595 98.7837 42.9363C99.8677 42.2179 99.8807 40.7943 98.7967 40.076C97.0988 38.9397 95.3879 37.8034 93.6769 36.6802C93.0761 36.2884 92.41 36.628 92.397 37.3332C92.3709 38.5348 91.3913 39.4491 90.3073 39.4882C89.1057 39.5274 88.1392 38.7177 88.0478 37.4638C87.9694 36.3929 87.9172 35.2958 88.1 34.2248C88.6355 31.1294 92.1358 29.6013 94.761 31.3253C96.6548 32.553 98.5224 33.8199 100.403 35.0607C101.788 35.9749 103.172 36.9022 104.57 37.8165C107.286 39.6188 107.312 43.3673 104.596 45.1827C101.33 47.3638 98.0784 49.5319 94.8002 51.6869C92.2664 53.3587 88.8837 52.0395 88.1523 49.1139C88.1131 48.9703 88.087 48.8266 88.0608 48.6829C87.9955 48.0691 88.0347 47.4814 88.0217 46.8283Z" fill="url(#paint0_linear_43_136)"/>
<mask id="mask0_43_136" style="mask-type:luminance" maskUnits="userSpaceOnUse" x="87" y="30" width="20" height="23">
<path d="M88.0217 46.8283C88.0478 46.3712 87.9825 45.8488 88.0608 45.3264C88.2437 44.1901 89.1971 43.4195 90.3987 43.4848C91.4566 43.537 92.3578 44.4774 92.3839 45.5745C92.397 45.9402 92.4884 46.2275 92.828 46.4104C93.1545 46.5802 93.4549 46.4888 93.7422 46.2928C95.4271 45.1696 97.1119 44.0595 98.7837 42.9363C99.8677 42.2179 99.8807 40.7943 98.7967 40.076C97.0988 38.9397 95.3879 37.8034 93.6769 36.6802C93.0761 36.2884 92.41 36.628 92.397 37.3332C92.3709 38.5348 91.3913 39.4491 90.3073 39.4882C89.1057 39.5274 88.1392 38.7177 88.0478 37.4638C87.9694 36.3929 87.9172 35.2958 88.1 34.2248C88.6355 31.1294 92.1358 29.6013 94.761 31.3253C96.6548 32.553 98.5224 33.8199 100.403 35.0607C101.788 35.9749 103.172 36.9022 104.57 37.8165C107.286 39.6188 107.312 43.3673 104.596 45.1827C101.33 47.3638 98.0784 49.5319 94.8002 51.6869C92.2664 53.3587 88.8837 52.0395 88.1523 49.1139C88.1131 48.9703 88.087 48.8266 88.0608 48.6829C87.9955 48.0691 88.0347 47.4814 88.0217 46.8283Z" fill="white"/>
</mask>
<g mask="url(#mask0_43_136)">
<path d="M85.8405 48.2517C85.8666 47.7945 85.8013 47.2721 85.8797 46.7497C86.0625 45.6134 87.016 44.8428 88.2176 44.9081C89.2755 44.9604 90.1767 45.9007 90.2028 46.9978C90.2158 47.3635 90.3073 47.6509 90.6468 47.8337C90.9733 48.0035 91.2737 47.9121 91.5611 47.7162C93.2459 46.593 94.9307 45.4828 96.6025 44.3596C97.6865 43.6413 97.6996 42.2176 96.6156 41.4993C94.9177 40.363 93.2067 39.2268 91.4958 38.1035C90.895 37.7117 90.2289 38.0513 90.2158 38.7566C90.1897 39.9581 89.2102 40.8724 88.1261 40.9116C86.9245 40.9508 85.9581 40.141 85.8666 38.8872C85.7883 37.8162 85.736 36.7191 85.9189 35.6481C86.4544 32.5528 89.9546 31.0247 92.5798 32.7487C94.4736 33.9764 96.3413 35.2432 98.222 36.484C99.6064 37.3983 100.991 38.3256 102.388 39.2398C105.105 41.0422 105.131 44.7906 102.414 46.606C99.1493 48.7872 95.8972 50.9552 92.619 53.1102C90.0852 54.782 86.7025 53.4629 85.9711 50.5373C85.9319 50.3936 85.9058 50.25 85.8797 50.1063C85.8144 49.4924 85.8536 48.9047 85.8405 48.2517Z" fill="url(#paint1_linear_43_136)"/>
</g>
<mask id="mask1_43_136" style="mask-type:luminance" maskUnits="userSpaceOnUse" x="87" y="30" width="20" height="23">
<path d="M88.0217 46.8283C88.0478 46.3712 87.9825 45.8488 88.0608 45.3264C88.2437 44.1901 89.1971 43.4195 90.3987 43.4848C91.4566 43.537 92.3578 44.4774 92.3839 45.5745C92.397 45.9402 92.4884 46.2275 92.828 46.4104C93.1545 46.5802 93.4549 46.4887 93.7422 46.2928C95.4271 45.1696 97.1119 44.0595 98.7837 42.9363C99.8677 42.2179 99.8807 40.7943 98.7967 40.076C97.0988 38.9397 95.3879 37.8034 93.6769 36.6802C93.0761 36.2884 92.41 36.628 92.397 37.3332C92.3709 38.5348 91.3913 39.4491 90.3073 39.4882C89.1057 39.5274 88.1392 38.7177 88.0478 37.4638C87.9694 36.3929 87.9172 35.2958 88.1 34.2248C88.6355 31.1294 92.1358 29.6013 94.761 31.3253C96.6548 32.553 98.5224 33.8199 100.403 35.0607C101.788 35.9749 103.172 36.9022 104.57 37.8165C107.286 39.6188 107.312 43.3673 104.596 45.1827C101.33 47.3638 98.0784 49.5319 94.8002 51.6869C92.2664 53.3587 88.8837 52.0395 88.1523 49.1139C88.1131 48.9703 88.087 48.8266 88.0608 48.6829C87.9955 48.0691 88.0347 47.4814 88.0217 46.8283Z" fill="white"/>
</mask>
<g mask="url(#mask1_43_136)">
<path d="M88.1653 43.563C88.4526 43.341 89.5889 42.8447 89.8762 42.6487C91.561 41.5255 92.5537 47.0633 94.2385 45.9531C95.3225 45.2348 95.3356 43.8111 94.2515 43.0928C92.5537 41.9565 90.8427 40.8203 89.1318 39.697C88.531 39.3052 87.8649 39.6448 87.8518 40.3501C87.8257 41.5517 86.8462 42.4659 85.7621 42.5051C84.5605 42.5443 83.594 41.7345 83.5026 40.4807C83.4243 39.4097 83.372 38.3126 83.5549 37.2416C84.0903 34.1463 87.5906 32.6182 90.2158 34.3422C92.1096 35.5699 93.9773 36.8368 95.858 38.0775C97.2424 38.9918 98.6269 39.9191 100.024 40.8333C102.741 42.6357 102.767 46.3841 100.05 48.1995C96.7853 50.3807 93.5332 52.5487 90.255 54.7037C86.8461 50.015 86.4674 44.8821 88.1653 43.563Z" fill="url(#paint2_linear_43_136)"/>
</g>
<path fill-rule="evenodd" clip-rule="evenodd" d="M126.58 27.4209C125.051 27.4209 123.811 28.6606 123.811 30.1899C123.811 31.7192 125.051 32.9589 126.58 32.9589C128.109 32.9589 129.349 31.7192 129.349 30.1899C129.349 28.6606 128.109 27.4209 126.58 27.4209ZM124.185 30.1899C124.185 28.8672 125.257 27.7949 126.58 27.7949C127.903 27.7949 128.975 28.8672 128.975 30.1899C128.975 31.5126 127.903 32.5849 126.58 32.5849C125.257 32.5849 124.185 31.5126 124.185 30.1899ZM125.794 28.7034C125.728 28.7034 125.671 28.7216 125.627 28.7618L125.626 28.7629C125.584 28.8046 125.566 28.8629 125.566 28.931V31.4068C125.566 31.4751 125.584 31.5338 125.625 31.5778L125.626 31.5789C125.667 31.6203 125.724 31.6384 125.79 31.6384C125.86 31.6384 125.919 31.621 125.959 31.5777C126 31.5338 126.018 31.4751 126.018 31.4068V30.4306H126.46C126.583 30.4306 126.676 30.4489 126.744 30.4827L126.745 30.4832C126.809 30.5128 126.87 30.578 126.927 30.6866L127.361 31.4813L127.361 31.4815C127.387 31.5306 127.418 31.5703 127.456 31.5986L127.458 31.5998C127.498 31.6268 127.55 31.6384 127.608 31.6384C127.664 31.6384 127.714 31.6251 127.75 31.5924L127.752 31.5909C127.786 31.557 127.804 31.5145 127.807 31.4656C127.811 31.4165 127.797 31.3676 127.77 31.3197L127.77 31.3195L127.401 30.6421C127.338 30.5209 127.263 30.4296 127.176 30.3714L127.163 30.3625C127.203 30.35 127.242 30.3355 127.279 30.3188C127.427 30.2517 127.542 30.1545 127.621 30.027L127.621 30.0267C127.7 29.8964 127.739 29.742 127.739 29.565C127.739 29.2941 127.653 29.0803 127.477 28.9296C127.304 28.7769 127.06 28.7034 126.749 28.7034H125.794ZM126.018 30.0637V29.0863H126.689C126.899 29.0863 127.049 29.1297 127.146 29.2098C127.241 29.2889 127.292 29.4075 127.292 29.573C127.292 29.7383 127.242 29.8585 127.145 29.9404C127.048 30.0204 126.898 30.0637 126.689 30.0637H126.018Z" fill="#17161C"/>
<defs>
<linearGradient id="paint0_linear_43_136" x1="87.9867" y1="41.4996" x2="106.629" y2="41.4996" gradientUnits="userSpaceOnUse">
<stop stop-color="#B4B4B4"/>
<stop offset="0.5054" stop-color="#D0D0D0"/>
<stop offset="1" stop-color="#CACACA"/>
</linearGradient>
<linearGradient id="paint1_linear_43_136" x1="85.7986" y1="42.9187" x2="104.441" y2="42.9187" gradientUnits="userSpaceOnUse">
<stop stop-color="#898989"/>
<stop offset="0.5054" stop-color="#9B9B9B"/>
<stop offset="1" stop-color="#ABABAB"/>
</linearGradient>
<linearGradient id="paint2_linear_43_136" x1="86.8101" y1="44.5514" x2="101.111" y2="41.7095" gradientUnits="userSpaceOnUse">
<stop stop-color="#727272"/>
<stop offset="0.513542" stop-color="#A09E9E"/>
<stop offset="0.805208" stop-color="#7E7E7E"/>
<stop offset="1" stop-color="#787878"/>
</linearGradient>
</defs>
</svg>
