<svg width="97" height="82" viewBox="0 0 97 82" fill="none" xmlns="http://www.w3.org/2000/svg">
<g clip-path="url(#clip0_1458_145587)">
<path d="M19.5332 36.9219H25.8652V52.3411H19.5332V36.9219ZM47.1513 38.2176H57.9291V43.5301H47.1513V38.2176Z" fill="#17161C"/>
<path d="M22.6992 35.754C24.4477 35.754 25.8651 34.3907 25.8651 32.709C25.8651 31.0273 24.4477 29.6641 22.6992 29.6641C20.9507 29.6641 19.5332 31.0273 19.5332 32.709C19.5332 34.3907 20.9507 35.754 22.6992 35.754Z" fill="#17161C"/>
<path fill-rule="evenodd" clip-rule="evenodd" d="M45.4014 37.9503C45.3743 33.3693 41.3954 29.6641 36.5232 29.6641C31.6511 29.6641 27.7128 33.3314 27.6451 37.8868L27.6186 51.5619H27.6181V52.3394H34.2194V38.1256H34.2203C34.2197 38.1044 34.2194 38.0833 34.2194 38.0621C34.2194 36.7679 35.3052 35.7186 36.6444 35.7186C37.9837 35.7186 39.0694 36.7679 39.0694 38.0622C39.0694 38.0833 39.0692 38.1045 39.0686 38.1256H39.0694V52.3394H45.4014V37.9503ZM0 52.3394H6.38785V38.9757C6.38785 36.8069 7.19996 35.716 8.83751 35.716C9.52782 35.716 10.1097 35.9368 10.597 36.3914C11.0841 36.8459 11.3277 37.3913 11.3277 38.0407C11.3277 38.677 11.0977 39.2354 10.6241 39.7031C10.1504 40.1705 9.59546 40.4044 8.93222 40.4044C8.46527 40.4044 8.00897 40.2416 7.54444 39.9254V46.5398C8.2 46.6054 8.70777 46.638 9.06761 46.638C11.4226 46.638 13.466 45.794 15.1984 44.1186C16.9172 42.4432 17.7833 40.4433 17.7833 38.1315C17.7833 35.7549 16.9172 33.7549 15.1713 32.1186C13.4255 30.4822 11.2872 29.6641 8.75641 29.6641C7.48422 29.6641 6.23899 29.9368 5.03457 30.4692C3.83015 31.0018 2.82849 31.716 2.0436 32.6251C0.67671 34.1965 0 36.2355 0 38.729L0 52.3394ZM79.2167 52.3394H85.6047V38.9757C85.6047 36.8069 86.4166 35.716 88.0542 35.716C88.7444 35.716 89.3264 35.9368 89.8136 36.3914C90.3008 36.8459 90.5444 37.3913 90.5444 38.0407C90.5444 38.677 90.3143 39.2354 89.8406 39.7031C89.3669 40.1705 88.8121 40.4044 88.1489 40.4044C87.6819 40.4044 87.2256 40.2416 86.7611 39.9254V46.5398C87.4167 46.6054 87.9244 46.638 88.2843 46.638C90.6391 46.638 92.6827 45.794 94.4151 44.1186C96.1339 42.4432 97 40.4433 97 38.1315C97 35.7549 96.1339 33.7549 94.388 32.1186C92.6421 30.4822 90.5038 29.6641 87.9729 29.6641C86.7009 29.6641 85.4558 29.9368 84.2512 30.4692C83.0467 31.0018 82.0452 31.716 81.2603 32.6251C79.8934 34.1965 79.2167 36.2355 79.2167 38.729V52.3394ZM59.6825 30.4415L59.709 44.1165C59.7767 48.6721 63.715 52.3394 68.5871 52.3394C73.4593 52.3394 77.4382 48.6341 77.4653 44.0532V30.1824H71.1333V43.8779H71.1325C71.1331 43.899 71.1333 43.9201 71.1333 43.9412C71.1333 45.2355 70.0476 46.2848 68.7083 46.2848C67.3691 46.2848 66.2833 45.2355 66.2833 43.9412C66.2833 43.9201 66.2836 43.899 66.2841 43.8779H66.2833V30.1824H59.6819V30.4415H59.6825ZM59.6819 29.6641H66.2833H59.6819ZM71.1333 29.6641H77.4653H71.1333Z" fill="#17161C"/>
</g>
<defs>
<clipPath id="clip0_1458_145587">
<rect width="97" height="22.6753" fill="white" transform="translate(0 29.6641)"/>
</clipPath>
</defs>
</svg>
