<svg width="127" height="82" viewBox="0 0 127 82" fill="none" xmlns="http://www.w3.org/2000/svg">
<g clip-path="url(#clip0_1458_145592)">
<path d="M108.423 31.6562H102.764C102.317 31.6562 101.955 31.9779 101.955 32.3748V49.6195C101.955 50.0163 102.317 50.338 102.764 50.338H108.423C108.87 50.338 109.232 50.0163 109.232 49.6195V32.3748C109.232 31.9779 108.87 31.6562 108.423 31.6562Z" fill="#17161C"/>
<path d="M8.48928 31.6562C14.44 31.6562 17.5919 33.5737 17.7871 38.123C17.5919 40.2992 16.579 42.2429 14.9573 43.1527L18.7071 49.8177C18.8062 49.9953 18.7257 50.2114 18.5259 50.2995C18.4701 50.3242 18.4082 50.338 18.3447 50.338H11.4863C11.144 50.338 10.8373 50.1453 10.7243 49.859L8.48928 44.2305H6.87228V50.338H0.808503C0.362432 50.338 0 50.0159 0 49.6195V32.3748C0 31.9783 0.362432 31.6562 0.808503 31.6562H8.48928ZM8.48928 36.3267H6.87228V39.9193H8.48928C9.68035 39.9193 10.1063 39.7156 10.1063 38.123C10.1063 36.6323 9.73766 36.3267 8.48928 36.3267V36.3267Z" fill="#17161C"/>
<path d="M92.2529 31.6562C97.5592 31.6562 100.071 33.699 99.9336 36.686C100.071 38.5057 99.0384 39.7514 97.5081 40.2786V40.6379C99.6254 41.1719 100.742 42.6407 100.742 44.5898C100.742 48.1714 98.1726 50.338 92.2529 50.338H83.7636C83.3175 50.338 82.9551 50.0159 82.9551 49.6195V32.3748C82.9551 31.9783 83.3175 31.6562 83.7636 31.6562H92.2529V31.6562ZM92.6571 43.1527H89.8273V45.6676H92.6571C93.6484 45.6676 93.8699 45.4418 93.8699 44.5898C93.8699 43.4789 93.6484 43.1527 92.6571 43.1527ZM92.2529 36.686H89.8273V38.8415H92.2529C93.2472 38.8415 93.4656 38.5869 93.4656 37.7637C93.4656 36.9406 93.1915 36.686 92.2529 36.686V36.686Z" fill="#17161C"/>
<path d="M74.5694 45.1321H80.9135C81.3596 45.1321 81.722 45.4542 81.722 45.8506C81.722 45.8561 81.722 45.8617 81.722 45.8672L81.6213 49.636C81.6105 50.0255 81.2527 50.338 80.8128 50.338H68.4003C67.9542 50.338 67.5918 50.0159 67.5918 49.6195V32.3748C67.5918 31.9783 67.9542 31.6562 68.4003 31.6562H73.7609C74.207 31.6562 74.5694 31.9783 74.5694 32.3748V45.1321V45.1321Z" fill="#17161C"/>
<path d="M59.2081 45.1321H65.5522C65.9982 45.1321 66.3607 45.4542 66.3607 45.8506C66.3607 45.8561 66.3607 45.8617 66.3607 45.8672L66.26 49.636C66.2492 50.0255 65.8914 50.338 65.4515 50.338H53.039C52.5929 50.338 52.2305 50.0159 52.2305 49.6195V32.3748C52.2305 31.9783 52.5929 31.6562 53.039 31.6562H58.3996C58.8456 31.6562 59.2081 31.9783 59.2081 32.3748V45.1321V45.1321Z" fill="#17161C"/>
<path d="M126.192 36.8869H122.241V49.6195C122.241 50.0159 121.878 50.338 121.432 50.338H116.061C115.615 50.338 115.252 50.0159 115.252 49.6195V36.8869H111.273C110.827 36.8869 110.465 36.5648 110.465 36.1684C110.465 36.1629 110.465 36.1574 110.465 36.1519L110.566 32.3583C110.576 31.9687 110.934 31.6562 111.374 31.6562H126.093C126.533 31.6562 126.89 31.9673 126.901 32.3583L127.002 36.1519C127.013 36.5483 126.66 36.8773 126.212 36.8869C126.206 36.8869 126.2 36.8869 126.193 36.8869H126.192Z" fill="#17161C"/>
<path d="M39.6984 30.9375C45.9495 30.9375 51.0174 35.4414 51.0174 40.9969C51.0174 46.5524 45.9495 51.0563 39.6984 51.0563C39.4242 51.0563 39.1516 51.0481 38.8821 51.0302L18.273 50.3378L37.5718 49.0439L32.8214 48.9874C31.4306 48.0404 30.2937 46.8126 29.5193 45.4003L21.9128 44.9502L29.0964 44.5249C28.6333 43.4278 28.3809 42.2385 28.3809 40.9983C28.3809 39.7581 28.6333 38.5688 29.0964 37.4717L21.9128 37.0464L29.5193 36.5949C30.2937 35.1826 31.4306 33.9548 32.8214 33.0077L37.5718 32.9499L18.2715 31.656L38.8263 30.9664C39.1144 30.9471 39.4041 30.9375 39.6984 30.9375ZM39.6984 37.2253C37.3534 37.2253 35.4529 38.9143 35.4529 40.9983C35.4529 43.0823 37.3534 44.7712 39.6984 44.7712C42.0433 44.7712 43.9438 43.0823 43.9438 40.9983C43.9438 38.9143 42.0433 37.2253 39.6984 37.2253V37.2253Z" fill="#17161C"/>
<path d="M39.6984 30.9375C45.9495 30.9375 51.0174 35.4414 51.0174 40.9969C51.0174 46.5524 45.9495 51.0563 39.6984 51.0563C39.4242 51.0563 39.1516 51.0481 38.8821 51.0302L18.273 50.3378L37.5718 49.0439L32.8214 48.9874C31.4306 48.0404 30.2937 46.8126 29.5193 45.4003L21.9128 44.9502L29.0964 44.5249C28.6333 43.4278 28.3809 42.2385 28.3809 40.9983C28.3809 39.7581 28.6333 38.5688 29.0964 37.4717L21.9128 37.0464L29.5193 36.5949C30.2937 35.1826 31.4306 33.9548 32.8214 33.0077L37.5718 32.9499L18.2715 31.656L38.8263 30.9664C39.1144 30.9471 39.4041 30.9375 39.6984 30.9375ZM39.6984 37.2253C37.3534 37.2253 35.4529 38.9143 35.4529 40.9983C35.4529 43.0823 37.3534 44.7712 39.6984 44.7712C42.0433 44.7712 43.9438 43.0823 43.9438 40.9983C43.9438 38.9143 42.0433 37.2253 39.6984 37.2253V37.2253Z" fill="#17161C"/>
<path d="M39.6984 30.9375C45.9495 30.9375 51.0174 35.4414 51.0174 40.9969C51.0174 46.5524 45.9495 51.0563 39.6984 51.0563C39.4242 51.0563 39.1516 51.0481 38.8821 51.0302L18.273 50.3378L37.5718 49.0439L32.8214 48.9874C31.4306 48.0404 30.2937 46.8126 29.5193 45.4003L21.9128 44.9502L29.0964 44.5249C28.6333 43.4278 28.3809 42.2385 28.3809 40.9983C28.3809 39.7581 28.6333 38.5688 29.0964 37.4717L21.9128 37.0464L29.5193 36.5949C30.2937 35.1826 31.4306 33.9548 32.8214 33.0077L37.5718 32.9499L18.2715 31.656L38.8263 30.9664C39.1144 30.9471 39.4041 30.9375 39.6984 30.9375ZM39.6984 37.2253C37.3534 37.2253 35.4529 38.9143 35.4529 40.9983C35.4529 43.0823 37.3534 44.7712 39.6984 44.7712C42.0433 44.7712 43.9438 43.0823 43.9438 40.9983C43.9438 38.9143 42.0433 37.2253 39.6984 37.2253V37.2253Z" fill="#17161C"/>
</g>
<defs>
<clipPath id="clip0_1458_145592">
<rect width="127" height="20.1188" fill="white" transform="translate(0 30.9375)"/>
</clipPath>
</defs>
</svg>
