<svg width="135" height="82" viewBox="0 0 135 82" fill="none" xmlns="http://www.w3.org/2000/svg">
<g clip-path="url(#clip0_1458_145589)">
<path d="M17.0342 22.9062H17.8584C18.3221 22.923 18.7852 22.9489 19.2469 22.9944C19.0619 23.7286 18.8682 24.4615 18.6853 25.1964C16.0737 24.9801 13.4162 25.47 11.0362 26.6053C10.6771 25.9544 10.3085 25.3091 9.94336 24.6616C12.1553 23.5726 14.5853 22.9636 17.0342 22.9062Z" fill="#17161C"/>
<path d="M22.2852 25.9609C22.4769 25.2379 22.6645 24.5142 22.8495 23.7891C24.7975 24.461 26.645 25.4619 28.2555 26.7868C29.2782 27.6239 30.2043 28.5856 31.0278 29.6326C30.3912 30.0099 29.7601 30.3949 29.1216 30.7672C27.3186 28.5604 24.9339 26.8729 22.2852 25.9609Z" fill="#17161C"/>
<path d="M1.26953 34.1907C2.44268 31.2336 4.36036 28.5949 6.81128 26.6484C7.17916 27.3001 7.53826 27.9573 7.90478 28.6103C5.93446 30.2355 4.37183 32.3772 3.37891 34.7744C2.67623 34.5799 1.97356 34.3825 1.26953 34.1907Z" fill="#17161C"/>
<path d="M16.171 27.0897C18.5416 26.8482 20.973 27.2689 23.133 28.3132C25.1857 29.2987 26.9899 30.8322 28.3298 32.7219C29.6805 34.6187 30.556 36.8766 30.8388 39.2171C31.179 41.958 30.7166 44.8018 29.5084 47.2669C28.3089 49.7383 26.3838 51.8226 24.0557 53.1741C21.8647 54.4564 19.3192 55.0702 16.8076 54.9351C14.6786 54.8294 12.5773 54.1848 10.7359 53.0719C8.64209 51.8142 6.88642 49.9601 5.71057 47.7673C4.49624 45.5171 3.91034 42.9113 4.03117 40.337C4.13242 37.9594 4.83847 35.6147 6.05819 33.5996C7.46152 31.2675 9.54119 29.3791 11.9597 28.2523C13.2895 27.6287 14.7184 27.2353 16.171 27.0897ZM14.9115 29.4267C12.8041 29.8747 10.8412 31.0015 9.35422 32.6127C7.73152 34.219 6.60967 36.3615 6.21817 38.6537C6.01972 39.7148 6.03997 40.7996 6.05684 41.8747C6.14459 44.2194 6.97619 46.5263 8.39909 48.3517C8.78519 48.8578 9.23069 49.3092 9.67349 49.7614C11.1477 51.2375 13.0431 52.253 15.0573 52.6464C16.1596 52.8697 17.2895 52.8676 18.4073 52.8235C18.163 51.5097 18.0131 50.1687 17.6007 48.8949C17.4016 48.3223 17.114 47.7869 16.7947 47.2767C16.7245 47.1668 16.6523 47.052 16.5423 46.9813C16.1359 46.7419 15.7134 46.5256 15.2564 46.4137C14.6057 46.1666 13.8659 45.9755 13.4272 45.3722C12.9817 44.8899 12.9223 44.1872 12.9094 43.5538C12.8946 42.6579 13.2294 41.8187 13.4602 40.9718C12.7684 40.9221 12.0691 40.8822 11.3968 40.6954C10.8237 40.5533 10.2925 40.2775 9.77069 39.9996C9.22394 39.705 8.79464 39.2395 8.40112 38.7573C8.01434 38.2758 7.86922 37.6486 7.72139 37.0551C7.70587 36.8612 7.58167 36.5239 7.83277 36.4441C8.49967 36.3391 9.17737 36.3531 9.85034 36.3594C10.7906 36.365 11.7147 36.568 12.6273 36.7793C13.712 37.0768 14.7481 37.6241 15.5622 38.4325C15.8038 38.2436 16.0718 38.0945 16.3533 37.9783C16.3378 37.4317 16.4498 36.8948 16.5139 36.3552C16.7097 34.9064 17.3968 33.5877 18.2217 32.4224C18.3445 32.2537 18.5484 32.1046 18.7617 32.169C19.0074 32.2516 19.2065 32.4378 19.3705 32.6379C19.7715 33.1902 20.1616 33.79 20.2777 34.4843C20.5174 35.5769 20.4134 36.7093 20.2312 37.8026C20.5538 37.8971 20.896 37.9713 21.1694 38.1862C21.4117 38.3723 21.5265 38.6733 21.6595 38.9428C21.8397 38.9309 22.0084 39.0163 22.1272 39.1534C22.456 39.5209 22.5903 40.036 22.5964 40.5281C22.7368 40.631 22.8805 40.7318 23.0446 40.7891C23.8242 41.0565 24.6349 41.214 25.4138 41.4821C25.7662 41.6689 26.1543 41.4618 26.5276 41.5094C26.8401 41.5283 27.2653 41.608 27.3605 41.9748C27.4294 42.3241 27.4429 42.723 27.2343 43.0275C27.0858 43.2465 27.1384 43.5377 27.0095 43.7673C26.7064 44.4952 26.0193 44.906 25.4516 45.3869C25.2991 45.5388 25.0277 45.5444 24.9494 45.7711C24.724 46.2765 24.3183 46.6558 23.9288 47.024C23.5326 47.3333 23.0581 47.537 22.57 47.6217C22.0348 47.6917 21.4927 47.6756 20.9561 47.6343C21.2261 49.0831 21.673 50.49 22.1232 51.8877C23.7857 51.15 25.1917 49.9034 26.3514 48.4826C28.2495 46.1001 29.1553 42.9113 28.8631 39.8408C28.6822 37.8691 28.0078 35.9492 26.9278 34.3163C25.5387 32.2061 23.484 30.5662 21.1451 29.7536C19.1485 29.0488 16.9669 28.9466 14.9115 29.4267Z" fill="#17161C"/>
<path d="M31.1465 33.9622C31.7749 33.5962 32.3925 33.2105 33.0203 32.8438C34.2204 35.3347 34.8914 38.1078 34.8873 40.897C34.8914 41.76 34.8313 42.6223 34.7226 43.4782C34.0179 43.2886 33.3153 43.0905 32.6126 42.8945C32.9872 39.8513 32.4627 36.708 31.1465 33.9622Z" fill="#17161C"/>
<path d="M66.9349 34.8622C68.3524 34.6515 69.8475 34.8923 71.0983 35.6307C72.4173 36.3964 73.423 37.7158 73.8334 39.2248C74.2377 40.7058 74.1264 42.345 73.4757 43.7336C72.8034 45.1937 71.5384 46.3338 70.0629 46.8518C68.7439 47.3193 67.2819 47.3389 65.9474 46.9224C64.6089 46.5074 63.4168 45.5905 62.6716 44.3615C61.4073 42.31 61.4506 39.4803 62.7938 37.4806C63.732 36.0472 65.2859 35.096 66.9349 34.8622ZM67.1212 37.3014C66.2943 37.4778 65.5451 37.9985 65.0706 38.7222C64.0182 40.3041 64.2606 42.709 65.7125 43.9436C66.6312 44.7457 67.9616 44.9627 69.0888 44.5595C69.8273 44.2978 70.4645 43.7539 70.8648 43.0603C71.4081 42.135 71.5283 40.9774 71.2677 39.9366C71.0463 39.0561 70.5111 38.2561 69.7652 37.7697C68.9896 37.2559 68.0163 37.1047 67.1212 37.3014Z" fill="#17161C"/>
<path d="M84.2066 34.8619C85.5431 34.6645 86.9471 34.8647 88.1526 35.5093C89.2657 36.0972 90.1891 37.0652 90.7352 38.2305C91.7234 40.3135 91.4959 42.9732 90.1054 44.8055C89.263 45.9401 88.0217 46.7345 86.6771 47.046C85.2353 47.3791 83.6794 47.2349 82.3436 46.5686C81.2487 46.0255 80.3226 45.1212 79.7455 44.0132C79.0482 42.6918 78.8626 41.1065 79.1657 39.6395C79.4357 38.3292 80.1384 37.1205 81.1326 36.2645C82.002 35.5072 83.0841 35.027 84.2066 34.8619ZM84.403 37.2955C83.6511 37.4515 82.9565 37.8862 82.4786 38.5091C81.348 39.9663 81.4209 42.2816 82.6622 43.6451C83.4729 44.562 84.7635 44.935 85.9265 44.6803C86.8958 44.4871 87.7551 43.8117 88.2127 42.9067C88.9606 41.4459 88.7601 39.482 87.6322 38.2865C86.8195 37.3976 85.5485 37.0442 84.403 37.2955Z" fill="#17161C"/>
<path d="M47.1077 35.0004C48.9336 35.0011 50.7595 34.9983 52.586 35.0018C53.6971 35.02 54.8662 35.3182 55.6964 36.1252C56.4592 36.8482 56.7838 37.9512 56.7656 39.0004C56.7805 39.9852 56.4841 41.0043 55.8145 41.7238C55.396 42.1871 54.856 42.5161 54.2863 42.738C55.2367 44.1637 56.1791 45.5957 57.1274 47.0228C56.1338 47.0228 55.1402 47.0207 54.1466 47.0242C53.3089 45.7483 52.4807 44.4653 51.6457 43.188C50.9815 43.188 50.3173 43.188 49.6531 43.188C49.6531 44.466 49.6531 45.7448 49.6531 47.0228C48.8047 47.0221 47.9562 47.0228 47.1077 47.0228C47.107 43.0151 47.1077 39.0081 47.1077 35.0004ZM49.6531 37.3822C49.6531 38.5301 49.6525 39.6779 49.6538 40.8258C50.4955 40.8258 51.3366 40.8258 52.1783 40.8258C52.6123 40.8265 53.0605 40.7558 53.4385 40.5227C54.2762 40.0384 54.4078 38.733 53.8267 37.9918C53.4541 37.5467 52.8594 37.4004 52.3133 37.3836C51.427 37.3794 50.5401 37.3829 49.6531 37.3822Z" fill="#17161C"/>
<path d="M96.7969 35.0005C98.6626 35.0019 100.528 34.997 102.393 35.0033C103.483 35.0348 104.654 35.3722 105.374 36.273C105.989 37.0093 106.113 38.0724 105.887 38.9928C105.699 39.7662 105.129 40.366 104.483 40.7615C105.06 40.9953 105.63 41.3074 106.035 41.8058C106.387 42.2341 106.572 42.7899 106.613 43.3463C106.685 44.1491 106.539 45.0086 106.039 45.6476C105.454 46.4126 104.526 46.7878 103.621 46.9466C102.817 47.095 101.997 47.0495 101.184 47.0572C99.7217 47.0565 98.2596 47.0572 96.7969 47.0565C96.7976 43.0383 96.7976 39.0194 96.7969 35.0005ZM99.2971 37.2836C99.2957 38.1305 99.2964 38.9767 99.2964 39.8236C99.9917 39.8222 100.687 39.8236 101.382 39.8222C101.932 39.8523 102.528 39.8285 103.004 39.5073C103.497 39.1755 103.583 38.4266 103.314 37.9177C103.043 37.4551 102.484 37.3158 101.998 37.2892C101.098 37.2773 100.197 37.2892 99.2971 37.2836ZM99.2971 42.0395C99.2957 42.9179 99.2964 43.797 99.2964 44.6754C100.353 44.6733 101.41 44.6803 102.466 44.6719C103.001 44.6502 103.628 44.5347 103.946 44.0364C104.231 43.5339 104.177 42.7773 103.702 42.4147C103.311 42.1165 102.806 42.0549 102.334 42.0416C101.321 42.0374 100.309 42.0423 99.2971 42.0395Z" fill="#17161C"/>
<path d="M111.93 46.9734C111.932 42.9825 111.942 38.9909 111.946 35C114.853 35.0007 117.761 34.9993 120.669 35.0007C120.667 35.7832 120.67 36.5664 120.667 37.3489C118.598 37.3468 116.529 37.3496 114.46 37.3475C114.459 38.1559 114.46 38.9636 114.46 39.7713C116.279 39.7727 118.099 39.7699 119.919 39.7727C119.919 40.5559 119.918 41.3384 119.919 42.1209C118.099 42.1202 116.279 42.1209 114.46 42.1209C114.46 42.9559 114.46 43.7902 114.46 44.6252C116.555 44.6252 118.651 44.6259 120.747 44.6245C120.747 45.4077 120.747 46.1909 120.747 46.9734C117.808 46.9727 114.869 46.9734 111.93 46.9734Z" fill="#17161C"/>
<path d="M125.411 35.0161C128.607 35.0155 131.804 35.0155 135.001 35.0161V37.4449C133.833 37.4456 132.664 37.4442 131.496 37.4456C131.496 40.6323 131.497 43.8197 131.496 47.0064C130.643 47.0071 129.789 47.0064 128.936 47.0064C128.936 43.8197 128.936 40.6323 128.936 37.4456C127.76 37.4442 126.585 37.4456 125.411 37.4449C125.41 36.6351 125.41 35.8253 125.411 35.0161Z" fill="#17161C"/>
<path d="M0 40.5155C0.037125 39.626 0.1134 38.7378 0.2565 37.8594C0.951075 38.0477 1.64228 38.2464 2.33415 38.4431C2.22885 39.4881 2.1249 40.5386 2.16743 41.5913C2.21265 43.143 2.5083 44.68 2.9916 46.1471C3.06923 46.3157 2.95313 46.4781 2.80463 46.5418C2.24573 46.8442 1.72665 47.2193 1.161 47.507C0.458325 45.6074 0.065475 43.5889 0 41.5556V40.5155Z" fill="#17161C"/>
<path d="M31.7527 46.6714C31.8533 46.6133 31.964 46.6812 32.0646 46.7036C32.6437 46.8912 33.2424 47.0087 33.8189 47.204C33.1365 49.2128 32.0889 51.0885 30.7584 52.7109C29.7615 53.9267 28.6018 54.9955 27.3402 55.9081C26.9777 55.2621 26.6173 54.6147 26.2656 53.9624C27.0473 53.3444 27.8141 52.699 28.4911 51.9564C29.8323 50.5139 30.8901 48.7942 31.6062 46.9345C31.6481 46.8436 31.6717 46.7344 31.7527 46.6714Z" fill="#17161C"/>
<path d="M2.875 50.9236C3.4879 50.5331 4.1143 50.1663 4.73463 49.7891C6.26822 52.1646 8.42148 54.1019 10.9149 55.3247C10.7253 56.0582 10.5376 56.7931 10.352 57.528C8.8042 56.7973 7.3462 55.8531 6.061 54.6969C4.8352 53.6015 3.7714 52.3186 2.875 50.9236Z" fill="#17161C"/>
<path d="M14.3897 56.534C17.2612 57.1366 20.2906 56.8616 23.0196 55.7578C23.3827 56.4115 23.7459 57.066 24.1138 57.7176C22.1515 58.5498 20.0482 59.0285 17.9274 59.0908H16.9837C15.924 59.0488 14.8669 58.9256 13.8281 58.7052C14.0131 57.9807 14.2081 57.2591 14.3897 56.534Z" fill="#17161C"/>
</g>
<defs>
<clipPath id="clip0_1458_145589">
<rect width="135" height="36.1856" fill="white" transform="translate(0 22.9062)"/>
</clipPath>
</defs>
</svg>
