<svg width="79" height="82" viewBox="0 0 79 82" fill="none" xmlns="http://www.w3.org/2000/svg">
<g clip-path="url(#clip0_1458_145601)">
<path d="M0.646864 21H10.7928C11.9025 21 12.9325 21.1542 13.9642 21.4609C15.2332 21.8446 16.3428 22.4579 17.2931 23.3026C18.3231 24.1472 19.1956 25.1443 19.8292 26.2955C20.3849 27.2155 20.7017 28.2143 20.9388 29.2885C21.176 30.3627 21.176 31.514 21.0185 32.5881C20.8592 34.1232 20.3053 35.5811 19.4328 36.8849C18.4824 38.2657 17.2931 39.417 15.7871 40.2616C15.3907 40.4912 14.9942 40.6454 14.5978 40.7996C14.4385 40.8767 14.5182 40.9537 14.5182 41.0291C14.835 41.5671 15.2314 42.0262 15.5482 42.5642C16.1817 43.4842 16.8949 44.483 17.5303 45.4029C18.4806 46.7838 19.4328 48.0893 20.3831 49.4701C20.5424 49.6997 20.6999 49.931 20.8592 50.1605C20.8592 50.2376 20.9388 50.2376 20.8592 50.3147C20.8592 50.3147 20.7796 50.3918 20.6999 50.3918H14.2793C13.8828 50.3918 13.6457 50.2376 13.4068 49.931C11.8211 47.6284 10.2354 45.3276 8.57181 43.025C7.8586 41.9508 7.06575 40.8767 6.35254 39.8025L6.19326 39.6483V50.2376C6.19326 50.3918 6.11362 50.4672 5.95612 50.4672H0.330078C0.646864 40.5683 0.646864 30.8235 0.646864 21ZM6.51359 26.9089V35.4269C6.51359 35.6314 6.61918 35.7336 6.83037 35.7336H11.0318C11.3485 35.7336 11.5875 35.7336 11.9043 35.6565C13.4103 35.2727 14.5199 34.3528 15.0756 32.8948C15.4721 31.7435 15.4721 30.5923 14.996 29.5181C14.1235 27.8306 12.7767 26.9089 10.8743 26.9089H6.51359V26.9089Z" fill="#17161C"/>
<path d="M78.3286 50.3918H71.8283C71.669 50.3918 71.5115 50.3147 71.4319 50.1622C70.3222 48.2434 69.2126 46.3247 68.103 44.4076C67.6269 43.563 67.1526 42.7201 66.6765 41.8754C66.5969 41.7984 66.5969 41.7213 66.5173 41.6459C66.2005 42.1067 65.9616 42.5659 65.7244 43.0267C65.0112 44.3305 64.298 45.5588 63.5052 46.8643C63.0291 47.7089 62.5548 48.4764 62.1584 49.3193C61.9991 49.626 61.8416 49.8573 61.6823 50.164C61.6027 50.3181 61.4452 50.3935 61.2859 50.3935H54.8652C55.0245 50.164 55.1024 49.9327 55.182 49.7802C56.0545 48.3223 56.8474 46.8643 57.7181 45.4064C58.5109 43.9484 59.3834 42.4905 60.1763 41.0326C61.1266 39.345 62.0787 37.7329 63.0291 36.0454C63.1087 35.8158 63.1884 35.6616 63.0291 35.4321C61.9195 33.5904 60.8895 31.6716 59.7798 29.7528C58.4331 27.2978 57.0049 24.9181 55.6581 22.4631C55.4209 22.0022 55.1024 21.5431 54.8652 21.0822V21.0017H61.3655C61.5248 21.0017 61.6027 21.0788 61.6823 21.2313C62.3159 22.3055 62.9512 23.4567 63.5848 24.5309C64.298 25.7593 64.9316 26.9106 65.6466 28.1372C65.9633 28.6752 66.2023 29.1343 66.519 29.6723C66.5987 29.5952 66.6783 29.5181 66.6783 29.4427C67.788 27.4468 68.9772 25.4526 70.0869 23.4567C70.5629 22.6892 71.0372 21.8446 71.4336 21.0771C71.5133 21 71.6708 21 71.8301 21H78.3304V21.1559C78.2507 21.233 78.1711 21.233 78.1711 21.3101C77.6154 22.2301 77.1411 23.1518 76.5854 23.9964C75.7925 25.4543 74.9201 26.8352 74.1272 28.2931C73.3344 29.5969 72.6211 30.9794 71.8283 32.2832C71.1947 33.3574 70.639 34.4316 70.0055 35.4286C69.9258 35.5828 69.9258 35.6582 70.0055 35.8124C70.4815 36.657 70.9558 37.4245 71.4319 38.2674C72.4619 40.1091 73.5715 41.9508 74.6033 43.7925C75.635 45.6342 76.7429 47.4759 77.7747 49.3176C77.9339 49.7785 78.1711 50.0081 78.3304 50.3918C78.3304 50.3404 78.3304 50.3404 78.3304 50.3918H78.3286Z" fill="#17161C"/>
<path d="M38.6168 50.3908C30.6901 50.6203 23.873 43.7144 23.873 35.7342C23.873 27.7541 30.6105 21.0777 38.5372 21.0007C46.5436 20.9236 53.3606 27.677 53.4403 35.6572C53.4403 43.6373 46.6232 50.6203 38.6168 50.3908V50.3908ZM27.3612 32.0509C27.3081 32.1022 27.3081 32.1022 27.3612 32.0509C27.3612 32.205 27.4409 32.205 27.5205 32.2804C27.9169 32.5871 28.3134 32.8184 28.6301 33.125C29.9769 34.1221 31.3255 35.0438 32.6722 36.0409C33.228 36.4247 33.7819 36.8084 34.2579 37.1922C34.3376 37.2693 34.4951 37.3464 34.4172 37.4989C34.3376 37.8055 34.1801 38.1122 34.1004 38.4188C33.7837 39.3388 33.4669 40.3376 33.1501 41.2576C32.674 42.7156 32.1997 44.0964 31.7237 45.5544V45.7086C31.8033 45.6315 31.8829 45.6315 31.9608 45.5544C32.2776 45.3248 32.5944 45.0935 32.8333 44.941C34.1022 44.021 35.449 43.0993 36.7179 42.1022C37.4311 41.5643 38.0647 41.1052 38.7797 40.5672C38.8593 40.4901 39.0168 40.5672 39.0964 40.5672C39.8893 41.1805 40.6821 41.7185 41.5546 42.3318C43.0607 43.406 44.4871 44.4802 45.9932 45.5544C45.9932 45.5544 46.0728 45.5544 46.1524 45.6315V45.5544C45.8357 44.4802 45.4392 43.4831 45.1224 42.4089C44.8853 41.5643 44.5667 40.7214 44.3296 39.8768C44.0925 39.1093 43.8535 38.2647 43.5368 37.4971C43.4571 37.2676 43.4571 37.1905 43.696 37.0363C44.4092 36.5754 45.0428 36.0392 45.7578 35.5783C47.3435 34.4271 48.8495 33.2758 50.4352 32.2016C50.5149 32.1245 50.5149 32.0474 50.5945 31.972H41.9546C41.875 31.972 41.7174 31.8949 41.7174 31.8179C41.5582 31.357 41.4007 30.9732 41.2414 30.5141C41.0042 29.8237 40.7653 29.1333 40.6078 28.4428C40.3707 27.5982 40.0521 26.8307 39.815 25.9878C39.5778 25.2203 39.3389 24.4528 39.1018 23.6082C39.1018 23.6082 39.1018 23.5311 39.0221 23.5311C38.8628 23.9148 38.785 24.2986 38.6257 24.6052C38.3885 25.2957 38.1496 25.9861 37.9921 26.6765C37.755 27.444 37.4364 28.2886 37.1993 29.0562C36.8825 29.9008 36.6436 30.7437 36.4064 31.6654C36.3268 31.8949 36.1693 31.972 35.9304 31.972H27.924C27.6869 32.1262 27.5276 32.0491 27.3683 32.0491L27.3612 32.0509Z" fill="#17161C"/>
<path d="M46.1475 56.9912V60.5204C46.1475 60.75 46.0678 60.9042 45.8307 60.9042C45.0378 60.9042 45.1175 61.0583 45.1175 60.2137V54.9182C45.1175 54.6624 45.2496 54.5087 45.5139 54.4573C45.9899 54.3803 46.2271 54.6869 46.3864 54.9953C46.9421 56.0695 47.496 57.2208 48.1296 58.2949C48.1296 58.2949 48.2092 58.372 48.2889 58.4491V54.8428C48.2889 54.6132 48.3685 54.5362 48.6056 54.5362C49.3985 54.5362 49.3985 54.382 49.3985 55.3037V60.5221C49.3985 60.7779 49.2663 60.9316 49.0021 60.983C48.6056 61.0601 48.3685 60.9059 48.2092 60.5221C47.6535 59.4479 47.0996 58.3737 46.466 57.2225C46.3067 57.0683 46.2289 56.9929 46.1492 56.9929L46.1475 56.9912Z" fill="#17161C"/>
<path d="M52.0918 57.6839V55.9193C52.1714 54.768 53.5979 54.1547 54.55 54.4613C55.58 54.768 55.9764 55.6897 55.9764 56.5326V59.0647C55.9764 59.9847 55.4207 60.6769 54.55 60.8293C53.2811 61.136 52.0918 60.4456 52.0918 59.1418V57.6839V57.6839ZM54.8668 57.6839V56.226C54.8668 55.5355 54.1536 55.1518 53.5979 55.4584C53.2014 55.6126 53.0422 55.9964 53.0422 56.3784V58.7581C53.0422 58.9123 53.1218 59.0647 53.1218 59.2189C53.2811 59.7569 53.7554 59.9094 54.0721 59.8323C54.5482 59.7552 54.865 59.3714 54.865 58.9123V57.6839H54.8668Z" fill="#17161C"/>
<path d="M31.4804 60.8324H31.1636C31.0044 60.8324 30.8469 60.7553 30.8469 60.6028C30.7672 60.2961 30.6876 60.0648 30.6097 59.7582C30.5301 59.5286 30.4504 59.4515 30.1336 59.4515H29.024C28.7869 59.4515 28.7072 59.5286 28.6276 59.7582C28.548 60.0648 28.4683 60.3715 28.3108 60.6782C28.3108 60.7553 28.1515 60.8324 27.994 60.9077H27.4383C27.2012 60.9077 27.2012 60.8306 27.2012 60.6782C27.518 59.5269 27.9144 58.3756 28.2312 57.2243C28.4683 56.4568 28.6276 55.6893 28.8647 54.9218C28.9444 54.6922 28.9444 54.4609 29.2612 54.4609C29.7366 54.4609 30.0275 54.5889 30.1336 54.8447C30.5301 56.0731 30.8469 57.2997 31.2433 58.5281C31.4026 59.2185 31.6397 59.9089 31.799 60.524C31.8786 60.7536 31.799 60.8306 31.5618 60.8306C31.6415 60.8306 31.5618 60.8306 31.4822 60.8306L31.4804 60.8324ZM29.6576 55.9206C29.6045 55.972 29.5779 56.0234 29.5779 56.0748C29.4187 56.7652 29.2612 57.5327 29.1019 58.2231C29.0222 58.3773 29.1019 58.4527 29.339 58.4527H30.2115C30.2912 58.4527 30.3708 58.2985 30.3708 58.2231C30.2115 57.5327 30.054 56.7652 29.8947 56.0748C29.7355 56.0748 29.6576 56.0748 29.6576 55.9206V55.9206Z" fill="#17161C"/>
<path d="M36.2387 60.9092C35.4459 60.9092 34.8123 60.6026 34.3363 60.0646C34.177 59.9104 34.177 59.8351 34.3363 59.6809C34.4955 59.5267 34.7327 59.2971 34.892 59.2971C35.0512 59.2971 35.2087 59.5267 35.368 59.6809C35.8441 60.0646 36.7148 60.0646 37.0334 59.5267C37.2705 59.0658 37.113 58.5296 36.6369 58.2983C36.1609 58.1441 35.6866 57.9916 35.2902 57.7604C34.7344 57.4537 34.3398 57.0699 34.3398 56.3795C34.3398 55.6891 34.4991 55.0758 35.1326 54.692C36.083 54.1541 37.1944 54.3853 37.9076 54.9987C38.0669 55.1529 38.0669 55.3053 37.9076 55.4595C37.9076 55.5366 37.828 55.5366 37.7483 55.6137C37.5112 55.9204 37.3519 55.9204 37.0351 55.6137C36.7183 55.3841 36.4016 55.23 35.9255 55.3841C35.6087 55.4612 35.4494 55.6908 35.3698 55.9975C35.2902 56.3041 35.4494 56.5354 35.6866 56.6879C36.0034 56.8421 36.3998 56.9946 36.7962 57.1487C37.0334 57.2258 37.2723 57.3029 37.4298 57.4554C38.2226 57.9163 38.3801 58.8363 38.2226 59.5267C37.9855 60.3713 37.3501 60.9075 36.4794 60.9075H36.2423L36.2387 60.9092Z" fill="#17161C"/>
<path d="M22.3664 57.6059C22.3664 58.1439 22.3664 58.603 22.446 59.141C22.446 59.5247 22.6832 59.6789 23.0796 59.7543C23.3964 59.8314 23.7928 59.7543 23.9521 59.5247C24.1892 59.141 24.4281 59.141 24.8246 59.2952C25.1413 59.4494 25.221 59.5247 25.0617 59.8331C24.6653 60.6006 23.7928 60.9844 22.9221 60.7531C22.0496 60.5989 21.416 59.9085 21.416 58.9885V56.0726C21.416 54.6918 22.6849 54.0014 23.7946 54.2309C24.4281 54.3851 24.8246 54.7689 25.1413 55.3051C25.221 55.4593 25.221 55.6118 24.9821 55.6889C24.9024 55.6889 24.8228 55.766 24.7449 55.766C24.5078 55.843 24.2689 55.9201 24.1113 55.6118C23.7946 55.0738 23.0814 55.0738 22.6849 55.5347C22.5256 55.6889 22.5256 55.9955 22.4478 56.2251C22.3681 56.763 22.3681 57.2222 22.3681 57.6059H22.3664Z" fill="#17161C"/>
<path d="M42.0257 57.6814V60.5202C42.0257 60.8269 41.946 60.904 41.6292 60.8269C40.916 60.7498 40.916 60.8269 40.916 60.0594V54.6884C40.916 54.4326 41.0482 54.3047 41.3124 54.3047C41.7348 54.3047 41.946 54.5348 41.946 54.9951C42.0256 55.9151 42.0257 56.7597 42.0257 57.6814Z" fill="#17161C"/>
</g>
<defs>
<clipPath id="clip0_1458_145601">
<rect width="78" height="40" fill="white" transform="translate(0.330078 21)"/>
</clipPath>
</defs>
</svg>
