<svg width="100" height="82" viewBox="0 0 100 82" fill="none" xmlns="http://www.w3.org/2000/svg">
<path d="M92.1298 29H96.0389V32.6043H99.7475V35.9486H96.0389V43.1053C96.0389 44.495 96.4997 45.2158 97.0721 45.5725C97.6371 45.9812 98.3056 46.0853 98.8185 46.0853C99.0262 46.0853 99.1304 46.0853 99.435 46.0333L100 45.9293V49.5856C100 49.5856 99.4871 49.6896 98.506 49.7417C97.4734 49.7417 95.8833 49.5856 94.5455 48.7087C93.1557 47.8318 92.1225 46.1893 92.1225 43.5065V32.857L92.1298 29Z" fill="#17161C"/>
<path d="M37.7302 47.1185C37.7302 48.9689 37.1654 50.5147 36.0284 51.5997C34.8988 52.6773 33.353 53.2496 31.5026 53.2496C30.7296 53.2496 30.0608 53.0935 29.392 52.8408L29.2359 52.7888L29.2879 52.6327C29.444 52.276 29.6966 51.7558 30.0087 51.243C30.0633 51.1464 30.1198 51.0472 30.1774 50.9459C30.3947 50.5644 30.6281 50.1545 30.8337 49.7493L30.8857 49.6972H30.9898C31.2498 49.6972 31.6065 49.6972 31.9707 49.6452C32.3274 49.5932 32.6916 49.4891 32.9517 49.2885C33.4645 48.9764 33.8806 48.3596 33.8806 47.0739V35.2279C33.8806 33.3254 34.4975 31.7796 35.627 30.702C36.7567 29.6244 38.3025 29.0522 40.1529 29.0522C40.5248 29.0522 40.8598 29.0952 41.225 29.1422L41.7433 29.2082V32.8126L41.5352 32.7085C40.6063 32.4484 39.4766 32.4484 38.7038 32.9686C38.191 33.2808 37.7228 33.9496 37.7228 35.1833V35.54H41.3271V38.8843H37.7302V47.1185Z" fill="#17161C"/>
<path d="M54.5259 44.8743V43.2617L54.5333 43.2245C54.8677 42.5334 55.2988 41.9091 55.819 41.3666C56.3392 40.8389 56.904 40.2964 57.506 39.7539C57.7416 39.5374 57.9567 39.3386 58.1514 39.1588L58.1523 39.158L58.153 39.1573L58.154 39.1563C58.4127 38.9174 58.6351 38.7119 58.8214 38.5426C59.1335 38.2527 59.3416 37.9852 59.4605 37.7399C59.5868 37.5022 59.6537 37.2049 59.6537 36.8481C59.6537 36.4023 59.5125 36.105 59.2598 35.9044C58.9923 35.6962 58.5687 35.5773 57.9518 35.5773C57.4762 35.5773 57.0081 35.6294 56.5398 35.7483C56.0716 35.8597 55.6258 35.9935 55.2021 36.157L54.9123 36.2685V33.3033L55.0535 33.2512C55.5365 33.0803 56.1014 32.9391 56.733 32.8276C57.3871 32.7162 58.0262 32.6641 58.6653 32.6641C60.0624 32.6641 61.1549 33.0134 61.9204 33.7492C62.6784 34.4849 63.05 35.5105 63.05 36.7887C63.05 37.517 62.879 38.1636 62.5297 38.7209C62.1879 39.2486 61.69 39.7985 61.0286 40.3707C60.5529 40.7721 60.1219 41.1511 59.7354 41.5004C59.4828 41.7307 59.2598 41.9685 59.0591 42.2138H62.6635L63.2655 44.8743H54.5259Z" fill="#17161C"/>
<path d="M58.5018 49.7643V45.5422H64.1014L63.1971 41.5459H60.6878C60.9302 41.3326 61.1874 41.1106 61.4593 40.8812L61.4655 40.8758C62.1589 40.2759 62.7045 39.6796 63.0903 39.084L63.093 39.0798L63.0956 39.0756C63.5201 38.3982 63.7179 37.6252 63.7179 36.7887C63.7179 35.3772 63.3036 34.1609 62.3855 33.2699L62.3832 33.2677C62.1372 33.0312 61.8664 32.8309 61.5735 32.6641H65.3315C67.5462 32.6641 69.0843 33.1323 69.9319 34.0613C70.8014 34.9754 71.2396 35.9861 71.2396 37.1083C71.2396 38.7284 70.0875 39.9917 68.5941 40.8984C69.7308 41.1288 70.4074 41.6415 71.0312 42.4516C71.6703 43.2617 71.9976 44.1386 71.9976 45.0972C71.9976 46.3606 71.4252 47.4605 70.2885 48.3895C69.1585 49.311 67.784 49.7643 64.9227 49.7643H58.5018Z" fill="#17161C"/>
<path fill-rule="evenodd" clip-rule="evenodd" d="M21.9236 32.6485C17.1376 32.6485 13.2286 36.2008 13.2286 41.0908C13.2286 46.0329 17.1376 49.6372 21.9756 49.5852C26.7616 49.5852 30.6706 46.0329 30.6706 41.0908C30.6706 36.2008 26.7095 32.6485 21.9236 32.6485ZM17.1896 41.0982C17.1896 38.2148 19.3522 36.1562 21.9756 36.1562C24.5543 36.1562 26.717 38.2148 26.7616 41.0982C26.7616 44.0337 24.5469 46.0923 21.9756 46.0923C19.3522 46.0923 17.1896 44.0337 17.1896 41.0982Z" fill="#17161C"/>
<path d="M2.00654 44.3904L0 47.0658L0.297265 47.5266C1.739 48.9683 3.74554 49.7413 5.75208 49.7413C7.44647 49.7413 8.83624 49.2285 9.8172 48.2995C10.7982 47.3705 11.311 46.0849 11.311 44.7472C11.311 43.3054 10.7982 42.2799 9.97321 41.507C9.20036 40.7341 8.17478 40.2659 7.24584 39.8571C7.14186 39.8052 7.03975 39.7662 6.93764 39.7272C6.83539 39.6882 6.73313 39.6491 6.62901 39.5971C6.46038 39.5184 6.29505 39.4434 6.13386 39.3704C5.65574 39.1537 5.21405 38.9536 4.83056 38.7202C4.26576 38.3634 4.00565 37.9993 4.00565 37.4865C4.00565 37.0703 4.2063 36.7136 4.51843 36.4535C4.88258 36.1488 5.39536 35.9927 6.06421 35.9927C7.09717 35.9927 8.2268 36.4535 8.9477 37.1224L9.56448 37.6872L11.2143 34.7516L10.8576 34.3949C9.62399 33.1613 7.82548 32.6485 6.17568 32.6485C4.63733 32.6485 3.24762 33.0572 2.21463 33.9342C1.12961 34.8111 0.512782 36.0447 0.512782 37.5385C0.512782 38.9282 1.02557 39.9018 1.85048 40.6747C2.67539 41.3955 3.64893 41.9157 4.57788 42.3244C4.69509 42.3548 4.79708 42.403 4.89274 42.4481C4.96085 42.4803 5.02576 42.5109 5.09066 42.5326C5.32041 42.6486 5.54488 42.7541 5.7607 42.8555C6.2219 43.0722 6.6439 43.2706 6.99318 43.5135C7.60996 43.9223 7.8701 44.3385 7.8701 44.8512C7.8701 45.2674 7.72143 45.6241 7.40933 45.8843C7.09717 46.1369 6.58442 46.3449 5.91557 46.3449C4.68193 46.3449 3.39625 45.6761 2.57134 44.9032L2.00654 44.3904Z" fill="#17161C"/>
<path fill-rule="evenodd" clip-rule="evenodd" d="M75.8699 35.0206C77.4153 33.3707 79.4737 32.5533 82.0971 32.5533C84.2076 32.5533 86.0582 33.2741 87.5002 34.6639C88.9942 36.1056 89.7148 37.904 89.7148 40.0667C89.7148 40.8395 89.6627 41.3523 89.5585 41.8131C89.5585 41.9171 89.5585 41.9691 89.5064 42.0732V42.1772H77.1034V42.3333C77.2591 43.671 77.8241 44.652 78.8499 45.2688C79.8824 45.8856 81.1681 46.0937 82.5579 46.0937C83.3827 46.0937 84.2597 45.9376 84.8768 45.737C84.9925 45.6984 85.1001 45.6598 85.2004 45.6238C85.3703 45.5629 85.5189 45.5096 85.6495 45.4769C85.6893 45.457 85.7215 45.4447 85.749 45.4342C85.7935 45.4172 85.8257 45.405 85.8579 45.3728C85.8839 45.3728 85.8969 45.3728 85.9035 45.3663C85.91 45.3598 85.91 45.3468 85.91 45.3208H86.0656L88.8973 46.9706L88.5407 47.3793C87.0467 48.7691 84.6838 49.594 82.2086 49.594C79.6373 49.594 77.5269 48.7691 75.8772 47.2233C74.279 45.6775 73.5063 43.619 73.5063 41.0476C73.5511 38.729 74.2717 36.6704 75.8699 35.0206ZM77.3112 39.2937H86.0582C86.0582 38.3648 85.6495 37.5473 84.981 37.0271C84.2597 36.4103 83.1824 36.0982 81.8894 36.0461C79.4737 36.0536 77.772 37.2872 77.3112 39.2937Z" fill="#17161C"/>
<path d="M48.4321 29H44.5157V43.5065C44.5157 46.1893 45.5486 47.8318 46.9384 48.7087C48.2761 49.5856 49.8664 49.7417 50.8994 49.7417C51.8804 49.6896 52.3932 49.5856 52.3932 49.5856V45.9293L51.8284 46.0333C51.5237 46.0853 51.4197 46.0853 51.2116 46.0853C50.6988 46.0853 50.0299 45.9812 49.4652 45.5725C48.8929 45.2158 48.4321 44.495 48.4321 43.1053V35.9486H52.1405V32.6043H48.4321V29Z" fill="#17161C"/>
</svg>
