<svg width="104" height="82" viewBox="0 0 104 82" fill="none" xmlns="http://www.w3.org/2000/svg">
<g clip-path="url(#clip0_44_5)">
<path d="M6.74789 26.9511C6.72163 19.988 11.1589 16.1255 19.3244 16.0992C25.2057 16.0992 26.256 19.9354 26.256 21.3281C26.256 24.0082 22.4751 26.846 22.4751 26.846C22.4751 26.846 22.6852 28.5013 25.9409 28.5013C29.1966 28.5013 32.3473 26.3467 32.3473 20.9602C32.3211 14.8117 25.8621 11.9739 19.4557 12.0002C14.1258 12.0265 -0.0523662 12.7622 0.000145473 26.846C0.0526571 39.3532 23.6304 40.4568 23.6566 48.4709C23.6829 57.1682 13.942 59.5067 10.6337 59.5067C7.32552 59.5067 5.98647 57.1682 5.98647 55.8806C5.96021 48.8387 12.9705 46.8681 12.9705 46.8681C12.9705 46.3426 12.5504 44.004 9.84608 44.004C2.86203 44.004 0.0789129 50.0212 0.105169 55.9069C0.131425 60.8993 3.6497 64.0261 8.97963 63.9998C19.1669 63.9736 30.6407 58.9812 30.5882 47.9454C30.5619 37.619 6.77415 34.9389 6.74789 26.9511Z" fill="#17161C"/>
<path d="M103.816 54.6196C103.737 54.4094 103.501 54.462 103.212 54.7247C102.057 55.6706 99.405 58.377 93.2349 58.4033C81.9712 58.4559 80.002 39.8526 80.002 39.8526C80.002 39.8526 88.5876 33.4414 89.9267 30.8401C91.2657 28.2388 87.0123 27.687 87.0123 27.687C87.0123 27.687 80.9997 34.9916 76.7462 37.1462C77.1926 33.9669 80.3433 26.7148 80.5271 22.5369C80.7109 18.3591 75.5122 19.3839 74.672 19.778C74.672 21.591 70.0773 38.1184 68.3969 47.2098C67.3992 48.7864 66.0076 50.5994 64.7473 50.5994C64.0122 50.5994 63.7496 49.2594 63.7496 47.315C63.7496 44.6348 65.2199 40.2993 65.2199 37.698C65.2199 35.885 64.3798 35.7799 63.6708 35.7799C63.5133 35.7799 62.6469 35.8062 62.4893 35.8062C60.6514 35.8062 61.2553 34.2296 59.6012 34.2559C54.5338 34.2822 48.1011 39.8001 47.8123 48.1558C46.1057 49.2856 43.7164 50.7045 42.4824 50.7308C41.1959 50.7308 40.8808 49.5484 40.8808 48.5236C40.8808 46.7106 43.7952 36.0164 43.7952 36.0164C43.7952 36.0164 47.4973 35.0705 49.1251 34.7552C50.3591 34.5187 50.7005 34.4136 51.1731 33.8355C51.6457 33.2574 52.5909 32.0225 53.3261 30.9189C54.0612 29.8153 53.3523 28.9745 51.9607 28.9745C50.1491 28.9745 45.2655 30.1306 45.2655 30.1306C45.2655 30.1306 47.6023 20.0145 47.6023 19.8305C47.6023 19.6466 47.3397 19.5152 46.9459 19.5152C46.0532 19.5152 44.4778 19.9882 43.4539 20.3561C41.9048 20.9078 40.6445 22.826 40.3819 23.6931C40.1194 24.5602 38.3865 31.5232 38.3865 31.5232C38.3865 31.5232 28.9869 34.7552 27.7004 35.2544C27.6216 35.2807 27.5691 35.3595 27.5691 35.4383C27.5691 35.5172 28.6456 39.6424 30.8511 39.6162C32.4264 39.6162 37.0474 37.7243 37.0474 37.7243C37.0474 37.7243 34.6582 47.1836 34.6844 50.3367C34.6844 52.3599 35.6296 54.7247 39.5943 54.7247C43.2701 54.7247 46.4995 52.8329 48.2849 51.4928C49.2827 53.989 51.5932 54.6722 53.1948 54.6722C56.7656 54.6722 59.4962 51.8344 59.8375 51.4402C60.3101 52.5438 61.3866 54.6196 63.8809 54.6196C65.2987 54.6196 66.7428 53.0431 67.8193 51.5191C67.793 51.8344 67.793 52.1497 67.8193 52.465C68.2394 56.3801 74.0681 54.0678 74.3832 53.5423C74.5933 50.7045 74.462 44.9239 75.591 41.3241C77.0876 53.5423 82.7851 61.7403 93.0249 61.714C98.7486 61.6878 101.689 60.0324 102.897 58.6923C103.921 57.5625 104.262 56.0385 103.816 54.6196ZM54.6651 50.5994C49.7553 50.6257 56.1617 37.8557 60.3626 37.8557C60.3626 39.4848 60.2838 50.5731 54.6651 50.5994Z" fill="#17161C"/>
<path d="M94.6001 54.4882C99.0373 54.4619 102.477 51.5453 103.107 50.5994C103.921 49.3644 102.162 47.4988 101.61 47.5251C100.219 48.8652 98.7485 50.4943 95.4403 50.4943C91.5544 50.5206 92.4471 46.2376 92.4471 46.2376C92.4471 46.2376 99.9038 47.2098 102.897 41.8496C103.842 40.1416 103.895 37.7506 103.501 36.7258C103.107 35.701 100.954 33.8092 97.4882 34.0982C93.2611 34.4661 87.9049 38.8804 86.7234 44.1881C85.8044 48.4973 87.5898 54.5145 94.6001 54.4882ZM99.3261 36.5944C100.035 36.5681 99.9563 37.7243 99.7725 38.933C99.5099 40.5621 97.2782 44.7136 92.9985 44.556C93.2873 42.1386 96.4643 36.6995 99.3261 36.5944Z" fill="#17161C"/>
<path d="M56.527 65.103C56.2713 65.103 56.0523 65.013 55.87 64.8331C55.6901 64.6532 55.6013 64.4354 55.6037 64.1797C55.6013 63.9287 55.6901 63.7145 55.87 63.5369C56.0523 63.357 56.2713 63.267 56.527 63.267C56.7685 63.267 56.9815 63.357 57.1662 63.5369C57.3532 63.7145 57.4479 63.9287 57.4503 64.1797C57.4479 64.3501 57.4029 64.5052 57.3153 64.6449C57.2301 64.7846 57.1177 64.8958 56.978 64.9787C56.8407 65.0616 56.6903 65.103 56.527 65.103ZM60.7435 65.103C60.1682 65.103 59.6746 64.9846 59.2626 64.7479C58.8531 64.5111 58.5382 64.1821 58.318 63.7607C58.0979 63.3369 57.9878 62.8468 57.9878 62.2905C57.9878 61.7318 58.0979 61.2417 58.318 60.8203C58.5406 60.3965 58.8566 60.0663 59.2662 59.8295C59.6781 59.5928 60.1694 59.4744 60.7399 59.4744C61.2442 59.4744 61.6833 59.5656 62.0574 59.7479C62.4338 59.9302 62.7274 60.1882 62.9381 60.522C63.1511 60.8535 63.2636 61.2429 63.2754 61.6903H61.6526C61.6194 61.411 61.5247 61.192 61.3685 61.0334C61.2146 60.8748 61.0134 60.7955 60.7648 60.7955C60.5635 60.7955 60.3872 60.8523 60.2357 60.9659C60.0841 61.0772 59.9658 61.2429 59.8805 61.4631C59.7977 61.6809 59.7562 61.9508 59.7562 62.2727C59.7562 62.5947 59.7977 62.867 59.8805 63.0895C59.9658 63.3097 60.0841 63.4766 60.2357 63.5902C60.3872 63.7015 60.5635 63.7571 60.7648 63.7571C60.9258 63.7571 61.0678 63.7228 61.1909 63.6541C61.3164 63.5855 61.4194 63.4848 61.4999 63.3523C61.5804 63.2173 61.6312 63.054 61.6526 62.8622H63.2754C63.2589 63.312 63.1464 63.705 62.9381 64.0412C62.7321 64.3774 62.4421 64.639 62.068 64.826C61.6964 65.0107 61.2548 65.103 60.7435 65.103ZM66.3103 65.103C65.7373 65.103 65.2449 64.9858 64.833 64.7514C64.4234 64.5147 64.1074 64.1856 63.8848 63.7642C63.6647 63.3404 63.5546 62.8492 63.5546 62.2905C63.5546 61.7294 63.6647 61.2382 63.8848 60.8168C64.1074 60.393 64.4234 60.0639 64.833 59.8295C65.2449 59.5928 65.7373 59.4744 66.3103 59.4744C66.8832 59.4744 67.3744 59.5928 67.784 59.8295C68.1959 60.0639 68.512 60.393 68.7321 60.8168C68.9547 61.2382 69.0659 61.7294 69.0659 62.2905C69.0659 62.8492 68.9547 63.3404 68.7321 63.7642C68.512 64.1856 68.1959 64.5147 67.784 64.7514C67.3744 64.9858 66.8832 65.103 66.3103 65.103ZM66.3209 63.7926C66.5292 63.7926 66.7056 63.7287 66.85 63.6009C66.9944 63.473 67.1045 63.2955 67.1803 63.0682C67.2584 62.8409 67.2975 62.5781 67.2975 62.2798C67.2975 61.9768 67.2584 61.7116 67.1803 61.4844C67.1045 61.2571 66.9944 61.0795 66.85 60.9517C66.7056 60.8239 66.5292 60.7599 66.3209 60.7599C66.1055 60.7599 65.9232 60.8239 65.774 60.9517C65.6273 61.0795 65.5148 61.2571 65.4367 61.4844C65.3609 61.7116 65.323 61.9768 65.323 62.2798C65.323 62.5781 65.3609 62.8409 65.4367 63.0682C65.5148 63.2955 65.6273 63.473 65.774 63.6009C65.9232 63.7287 66.1055 63.7926 66.3209 63.7926ZM69.5555 65V59.5455H71.2068V60.5469H71.2672C71.3808 60.2154 71.5725 59.9538 71.8424 59.7621C72.1123 59.5703 72.4343 59.4744 72.8083 59.4744C73.1871 59.4744 73.5115 59.5715 73.7814 59.7656C74.0512 59.9598 74.2229 60.2202 74.2963 60.5469H74.3531C74.4549 60.2225 74.6538 59.9633 74.9497 59.7692C75.2456 59.5727 75.5948 59.4744 75.9973 59.4744C76.5134 59.4744 76.9324 59.6402 77.2544 59.9716C77.5763 60.3007 77.7373 60.7528 77.7373 61.3281V65H76.0008V61.7259C76.0008 61.4536 75.931 61.2464 75.7913 61.1044C75.6516 60.96 75.4705 60.8878 75.248 60.8878C75.0089 60.8878 74.8207 60.9659 74.6833 61.1222C74.5484 61.276 74.4809 61.4832 74.4809 61.7436V65H72.8119V61.7081C72.8119 61.4548 72.7432 61.2547 72.6059 61.108C72.4686 60.9612 72.2875 60.8878 72.0626 60.8878C71.9111 60.8878 71.7773 60.9245 71.6613 60.9979C71.5453 61.0689 71.4542 61.1707 71.3879 61.3033C71.324 61.4358 71.292 61.5921 71.292 61.772V65H69.5555Z" fill="#17161C"/>
</g>
<defs>
<clipPath id="clip0_44_5">
<rect width="104" height="82" fill="white"/>
</clipPath>
</defs>
</svg>
