<svg xmlns="http://www.w3.org/2000/svg" class="icon-black" width="1.25rem" height="1.25rem" viewBox="0 0 20 20" fill="#17161C">
    <path d="M19.5577 4.94605L19.5827 5.10939C19.3411 4.25189 18.6886 3.59022 17.8594 3.34939L17.8419 3.34522C16.2827 2.92189 10.0086 2.92189 10.0086 2.92189C10.0086 2.92189 3.75025 2.91355 2.17525 3.34522C1.33025 3.59022 0.676912 4.25189 0.439412 5.09189L0.435245 5.10939C-0.147255 8.15189 -0.151422 11.8077 0.461079 15.0652L0.435245 14.9002C0.676912 15.7577 1.32941 16.4194 2.15858 16.6602L2.17608 16.6644C3.73358 17.0886 10.0094 17.0886 10.0094 17.0886C10.0094 17.0886 16.2669 17.0886 17.8427 16.6644C18.6886 16.4194 19.3419 15.7577 19.5794 14.9177L19.5836 14.9002C19.8486 13.4852 20.0002 11.8569 20.0002 10.1936C20.0002 10.1327 20.0002 10.0711 19.9994 10.0094C20.0002 9.95272 20.0002 9.88522 20.0002 9.81772C20.0002 8.15355 19.8486 6.52522 19.5577 4.94605V4.94605ZM8.00691 13.0477V6.97022L13.2286 10.0136L8.00691 13.0477Z"></path>
</svg>
