<svg width="16" height="16" viewBox="0 0 16 16" fill="none" xmlns="http://www.w3.org/2000/svg">
<path fill-rule="evenodd" clip-rule="evenodd" d="M8.00147 10.3361C7.8308 10.3361 7.66014 10.2708 7.53014 10.1408L4.86347 7.4741C4.6028 7.21344 4.6028 6.7921 4.86347 6.53144C5.12414 6.27077 5.54547 6.27077 5.80614 6.53144L8.00947 8.73477L10.2048 6.61477C10.4708 6.35944 10.8915 6.36677 11.1475 6.63144C11.4035 6.8961 11.3961 7.31877 11.1315 7.5741L8.4648 10.1488C8.3348 10.2741 8.16814 10.3361 8.00147 10.3361Z" fill="#898696"/>
<mask id="mask0_1256_12097" style="mask-type:luminance" maskUnits="userSpaceOnUse" x="4" y="6" width="8" height="5">
<path fill-rule="evenodd" clip-rule="evenodd" d="M8.00147 10.3361C7.8308 10.3361 7.66014 10.2708 7.53014 10.1408L4.86347 7.4741C4.6028 7.21344 4.6028 6.7921 4.86347 6.53144C5.12414 6.27077 5.54547 6.27077 5.80614 6.53144L8.00947 8.73477L10.2048 6.61477C10.4708 6.35944 10.8915 6.36677 11.1475 6.63144C11.4035 6.8961 11.3961 7.31877 11.1315 7.5741L8.4648 10.1488C8.3348 10.2741 8.16814 10.3361 8.00147 10.3361Z" fill="white"/>
</mask>
<g mask="url(#mask0_1256_12097)">
</g>
</svg>
