<svg width="25" height="26" viewBox="0 0 25 26" fill="none" xmlns="http://www.w3.org/2000/svg">
<path fill-rule="evenodd" clip-rule="evenodd" d="M4.4352 6.85156H20.9511C21.4865 6.85156 21.9244 7.28951 21.9244 7.8249V7.92951C21.9244 8.4649 21.4865 8.90284 20.9511 8.90284H4.4352C3.89981 8.90284 3.46289 8.4649 3.46289 7.92951V7.8249C3.46289 7.28951 3.89981 6.85156 4.4352 6.85156ZM20.9511 11.9798H4.4352C3.89981 11.9798 3.46289 12.4177 3.46289 12.9531V13.0577C3.46289 13.5931 3.89981 14.031 4.4352 14.031H20.9511C21.4865 14.031 21.9244 13.5931 21.9244 13.0577V12.9531C21.9244 12.4177 21.4865 11.9798 20.9511 11.9798ZM20.9511 17.108H4.4352C3.89981 17.108 3.46289 17.5459 3.46289 18.0813V18.1859C3.46289 18.7213 3.89981 19.1593 4.4352 19.1593H20.9511C21.4865 19.1593 21.9244 18.7213 21.9244 18.1859V18.0813C21.9244 17.5459 21.4865 17.108 20.9511 17.108Z" fill="#17161C"/>
<mask id="mask0_1326_134608" style="mask-type:luminance" maskUnits="userSpaceOnUse" x="3" y="6" width="19" height="14">
<path fill-rule="evenodd" clip-rule="evenodd" d="M4.4352 6.85156H20.9511C21.4865 6.85156 21.9244 7.28951 21.9244 7.8249V7.92951C21.9244 8.4649 21.4865 8.90284 20.9511 8.90284H4.4352C3.89981 8.90284 3.46289 8.4649 3.46289 7.92951V7.8249C3.46289 7.28951 3.89981 6.85156 4.4352 6.85156ZM20.9511 11.9798H4.4352C3.89981 11.9798 3.46289 12.4177 3.46289 12.9531V13.0577C3.46289 13.5931 3.89981 14.031 4.4352 14.031H20.9511C21.4865 14.031 21.9244 13.5931 21.9244 13.0577V12.9531C21.9244 12.4177 21.4865 11.9798 20.9511 11.9798ZM20.9511 17.108H4.4352C3.89981 17.108 3.46289 17.5459 3.46289 18.0813V18.1859C3.46289 18.7213 3.89981 19.1593 4.4352 19.1593H20.9511C21.4865 19.1593 21.9244 18.7213 21.9244 18.1859V18.0813C21.9244 17.5459 21.4865 17.108 20.9511 17.108Z" fill="white"/>
</mask>
<g mask="url(#mask0_1326_134608)">
</g>
</svg>
